<svg id="Capa_1" data-name="Capa 1" xmlns="http://www.w3.org/2000/svg" viewBox="0 0 737.05 290.49"><defs><style>.cls-1{fill:#f0a1a1;}.cls-2{fill:#bcbcbc;}.cls-3{fill:#122259;}.cls-4{fill:#fcd76f;}.cls-5{fill:#fff;}.cls-6{fill:#804e4f;}.cls-7{fill:#e66064;}.cls-8{fill:#f3a964;}.cls-9{fill:#f3a64e;}.cls-10{fill:#f8c46b;}.cls-11{fill:#f7be69;}.cls-12{fill:#d8dade;}.cls-13,.cls-14{fill:none;stroke:#122259;stroke-linecap:round;stroke-linejoin:round;}.cls-13{stroke-width:0.46px;}.cls-14{stroke-width:1.46px;}.cls-15{fill:#ee9596;}.cls-16{fill:#f5b25a;}.cls-17{fill:#f2a44b;}.cls-18{fill:#00002e;}.cls-19{fill:#c5c7cc;}.cls-20{fill:#b0afb5;}.cls-21{fill:#522f2d;}.cls-22{fill:#40211e;}.cls-23{fill:#d2585b;}.cls-24{fill:#ab4147;}.cls-25{fill:#000008;}.cls-26{fill:#a14343;}.cls-27{fill:#ce5659;}.cls-28{fill:#ef9229;}.cls-29{fill:#9c9ba0;}.cls-30{fill:#959393;}.cls-31{fill:#666767;}</style></defs><title>Welcome</title><rect class="cls-1" x="115.63" y="106.2" width="6.87" height="6.4"/><path class="cls-2" d="M130.93,159.35l2.29-44.08c0-1.42-1.25-2.32-2.57-2.85-1.6-.65-1.29-.69-8.15-2.85,0,0-.2,2.83-3.6,2.83-2.63,0-3.29-2.84-3.29-2.84s-5.63,1.52-7.49,2.58c-1.23.71-2.85,1.27-2.85,1.94l2.3,45.27Z"/><path class="cls-3" d="M107.09,157.29l1.35,32.57,3.83,26a6.87,6.87,0,0,0,2.4.28c1.73,0,1.93-.17,1.93-.17l3.13-45.26L122,215.94s.2.17,1.93.17a6.87,6.87,0,0,0,2.4-.28l3.84-26,.88-32.57Z"/><path class="cls-1" d="M126.67,102.26c0,1.45-3.76,5.93-7.61,5.93s-7.6-4.18-7.6-5.93V96.63a7.6,7.6,0,0,1,7.6-7.6h0a7.61,7.61,0,0,1,7.61,7.6Z"/><path class="cls-1" d="M128,99.81c-.29.84-1,1.35-1.64,1.14a1.44,1.44,0,0,1-.61-1.9c.28-.83,1-1.34,1.63-1.14A1.45,1.45,0,0,1,128,99.81Z"/><path class="cls-1" d="M110.1,99.81c.29.84,1,1.35,1.64,1.14a1.44,1.44,0,0,0,.61-1.9c-.28-.83-1-1.34-1.63-1.14A1.45,1.45,0,0,0,110.1,99.81Z"/><path class="cls-4" d="M112.27,215.83c-.28.57-.51,1.93-.86,2.71-.9,2-2.23,3-3.37,5.05-.67,1.17-.42,4,2.78,4.31a4.07,4.07,0,0,0,4.69-3.33c.47-3,.34-5.21,1.08-8.09.29-1.12-1.1-1.59-2.25-1.57A2.16,2.16,0,0,0,112.27,215.83Z"/><path class="cls-4" d="M126.21,215.83c.29.57.51,1.93.87,2.71.9,2,2.23,3,3.37,5.05.67,1.17.42,4-2.78,4.31a4.09,4.09,0,0,1-4.7-3.33c-.46-3-.33-5.21-1.07-8.09-.29-1.12,1.1-1.59,2.25-1.57A2.15,2.15,0,0,1,126.21,215.83Z"/><path class="cls-1" d="M102.57,175.21h0a1.12,1.12,0,0,0-.18-.21c-.82-.87-1.4-1.58-1.4-2.25s0-.91,0-1.5.59-1.95,1-1.95,1.08,1.35,1.3,1.61l.14.16c-.53.12-1.47.64-.83,2.66C102.69,174.09,103.36,174.68,102.57,175.21Z"/><path class="cls-1" d="M99.78,166.16a24.2,24.2,0,0,0-.7,6,4,4,0,0,0,2.75,4c.2,0,.75,0,.85-.18s.12-.47-.3-.9c-.82-.87-1.4-1.58-1.4-2.25s0-.91,0-1.5.59-1.95,1-1.95,1.08,1.35,1.3,1.61c.68.84,1.79.63,1.2-.32a6.66,6.66,0,0,1-1.06-4.43Z"/><path class="cls-1" d="M96.92,142.94l2.86,23.22h3.63s.84-17.6,1.06-23.22c.16-4.08.79-11.86,1.07-17.22.42-8.15.73-11.13.73-11.13S96.92,119.75,96.92,142.94Z"/><path class="cls-1" d="M132.14,114.17s1.46,4.49,1.5,12.64c0,2.7.41,16.13.41,16.13l1.06,23.22h3.63l2.86-23.22C141.6,117.36,132.14,114.17,132.14,114.17Z"/><path class="cls-2" d="M105.26,131.08s1.15-2.87,1.15-3.17V113s-6.61,2.39-8.8,18.05Z"/><path class="cls-2" d="M133.26,131.08h7.63c-2.25-15.66-9.06-18.05-9.06-18.05s.49,6.52.53,14.68A17.85,17.85,0,0,0,133.26,131.08Z"/><path class="cls-1" d="M136,175.21h0a1.12,1.12,0,0,1,.18-.21c.82-.87,1.4-1.58,1.4-2.25s0-.91,0-1.5-.59-1.95-1-1.95-1.08,1.35-1.3,1.61l-.14.16c.53.12,1.47.64.83,2.66C135.83,174.09,135.16,174.68,136,175.21Z"/><path class="cls-1" d="M138.74,166.16a24.2,24.2,0,0,1,.7,6,4,4,0,0,1-2.75,4c-.2,0-.75,0-.85-.18s-.12-.47.3-.9c.82-.87,1.4-1.58,1.4-2.25s0-.91,0-1.5-.59-1.95-1-1.95-1.08,1.35-1.3,1.61c-.68.84-1.79.63-1.2-.32a6.66,6.66,0,0,0,1.06-4.43Z"/><path class="cls-3" d="M126.9,94.32c-.1-1.37-.43-2.43-2-2.91,0,0,1.83-3.26-2.89-3.26h-5.24c-1.69,0-5.51,1.83-5.51,7.86,0,.73.13,3.79.12,4.12a6.22,6.22,0,0,0,.57,3.87c1.06,1.58,4.58,4,4.58,4a7.6,7.6,0,0,0,2.55.93,7.51,7.51,0,0,0,2.54-.93s3.59-2.2,4.65-3.78.51-4.06.51-4.06C126.74,99.87,127,96.18,126.9,94.32Zm-7.85,12c-.72,0-2.73-1.16-4.23-2.35a4.35,4.35,0,0,1,.34-.41c.35-.34,1.78-.89,4.15-.89a6.26,6.26,0,0,1,3.44,1.06l.28.43C121.56,105.25,119.73,106.29,119.05,106.29Zm5.68-3.73a6.42,6.42,0,0,1-.52.57l-.32-.49-.1-.08a7.66,7.66,0,0,0-4.48-1.45c-2.36,0-4.42.53-5.23,1.34a4.49,4.49,0,0,0-.41.46c-.11-.12-.21-.23-.3-.35a5.08,5.08,0,0,1-.86-3,5.39,5.39,0,0,1,2.43-4.4h8s2.68,2.68,2.68,4.4A5,5,0,0,1,124.73,102.56Z"/><rect class="cls-4" x="106.42" y="151.65" width="25.28" height="42.52"/><polygon class="cls-4" points="128.53 115.23 119.06 115.23 109.6 115.23 106.42 151.65 119.06 151.65 131.71 151.65 128.53 115.23"/><path class="cls-4" d="M122.51,109.57a8.57,8.57,0,0,1,3.39,5.66h1.68s-1.15-5.07-5.07-6.33Z"/><path class="cls-4" d="M115.64,109.57a8.57,8.57,0,0,0-3.39,5.66h-1.69s1.16-5.07,5.08-6.33Z"/><path class="cls-2" d="M112.61,126.37h12.13s0,11-5.24,11S112.15,131.19,112.61,126.37Z"/><path class="cls-5" d="M125.28,126.62a.78.78,0,0,1-.78.78H112.32a.78.78,0,0,1-.78-.78h0a.79.79,0,0,1,.78-.79H124.5a.79.79,0,0,1,.78.79Z"/><path class="cls-5" d="M124.37,68.19c-3.59,1.66-3.93,2.53-6.92,2.3s-12.94-1-7.91,7.86c1.09,6.25,1.72,16.76,1.72,16.76s3.55.18,7.76.26a32.73,32.73,0,0,0,7.91-.54s1.15-10.26,1.85-16h0s.56-4.69,2.22-6.93S128,66.52,124.37,68.19Z"/><path class="cls-2" d="M126,78.79a69.9,69.9,0,0,1-.22,7.41c-.1,1.22-.19,2.44-.31,3.66s-.25,2.46-.47,3.71a16.9,16.9,0,0,1-.61-3.72,29.33,29.33,0,0,1,0-3.75,30.78,30.78,0,0,1,.52-3.7A18.48,18.48,0,0,1,126,78.79Z"/><path class="cls-2" d="M112.56,78.79a18.48,18.48,0,0,1,1.08,3.61,30.78,30.78,0,0,1,.52,3.7,27.61,27.61,0,0,1,0,3.75,17.51,17.51,0,0,1-.61,3.72c-.22-1.25-.35-2.48-.46-3.71s-.22-2.44-.32-3.66A72.66,72.66,0,0,1,112.56,78.79Z"/><path class="cls-2" d="M119.25,78.79a22.16,22.16,0,0,1,.84,3.65,32.88,32.88,0,0,1,.37,3.7,29.19,29.19,0,0,1-.08,3.74,13.49,13.49,0,0,1-.77,3.69l-.3-3.7c-.1-1.22-.16-2.44-.22-3.67A47.19,47.19,0,0,1,119.25,78.79Z"/><path class="cls-2" d="M122.83,81.7a21.63,21.63,0,0,1,.28,3.08c0,1,0,2,0,3a52.67,52.67,0,0,1-.6,6.06,11.08,11.08,0,0,1-.69-3,19.78,19.78,0,0,1-.09-3.08,22.37,22.37,0,0,1,.32-3A15.26,15.26,0,0,1,122.83,81.7Z"/><path class="cls-2" d="M115.88,81.7a15.23,15.23,0,0,1,.78,3,22.39,22.39,0,0,1,.33,3,21.09,21.09,0,0,1-.09,3.08,11.08,11.08,0,0,1-.69,3,52.67,52.67,0,0,1-.6-6.06c0-1,0-2,0-3A20.27,20.27,0,0,1,115.88,81.7Z"/><path class="cls-6" d="M88.64,123.57s7.88,4.81,9.75,5.89a2.64,2.64,0,0,0,3.53-.53c.58-.82.87-2.44-1-3.68s-13.5-9.16-13.5-9.16Z"/><path class="cls-6" d="M88,108.9s8.2,17.5,9.15,19.43a3.08,3.08,0,0,0,3.65,1.42,2.83,2.83,0,0,0,1.52-3.81c-.86-2-11.3-19.14-11.3-19.14Z"/><path class="cls-1" d="M90.27,107.37a2,2,0,0,0,.1-2.27c-.35-.66-1.6-2.78-2.94-3.38l.19,6.11a3.09,3.09,0,0,0,.83.16l.29.43Z"/><rect class="cls-3" x="85.33" y="100.52" width="3.3" height="7.05" transform="translate(-42.55 63.88) rotate(-32.88)"/><path class="cls-1" d="M72.69,96.85c2.91-6.91,13.81-5.82,14.64,3v-.06s0,.11,0,.29a1.36,1.36,0,0,1,0,.2,28.4,28.4,0,0,0,.5,3.32,5.07,5.07,0,0,0,.55,1.34c.41.77-.37.9-.55.89l-.89,0,0,.35a9.08,9.08,0,0,1-.42,1.94c-.78,2.15-2.36,2.56-4,2.75l.81,5.25-1.21,3.66-4.26-3.66a26.4,26.4,0,0,0,.42-5c-.08-.84-1.61-1.53-2.21-2a8.46,8.46,0,0,1-3-3.53C71.51,102.13,71.53,99.59,72.69,96.85Z"/><path class="cls-3" d="M68.93,98.77c-.1-.91.24-2,2.07-3.21,2-1.41,1.13-2.54,2.61-3.69A4.28,4.28,0,0,1,77.44,91c.78.21,1.1.21,3-.42a2.65,2.65,0,0,1,3.36,1.59,2.59,2.59,0,0,0,2.47,2c2.17.4,2,4.91,0,5.22-1.47.22-2.09-2-3.58-.89s-1,3.47-3,4.26c-.48.19-1.31,0-1.76-1s-2.08.14-2,1.36c.07.73.49,3,2.1,2.14.94-.47,2.13.2.84,1.54-.66.69,0,2.08-.49,2.8h0a.72.72,0,0,1-.23.23c-1.83,1.28-4.86-.85-5.43-1.47s-1.69-.69-2.45-2c-.55-1-.49-2-.45-3.66S69.08,100.28,68.93,98.77Z"/><rect class="cls-1" x="74.7" y="221.22" width="3.52" height="2.88"/><path class="cls-6" d="M78.46,224.1H74.39v3.82H84s.7-1.16-1.52-2.16C80.72,225,78.46,224.1,78.46,224.1Z"/><rect class="cls-1" x="89.23" y="221.22" width="3.51" height="2.88"/><path class="cls-6" d="M93,224.1H88.92v3.82h9.6s.69-1.16-1.53-2.16C95.24,225,93,224.1,93,224.1Z"/><path class="cls-5" d="M69.82,157.05H92.39s1.38,24.95,1.38,37.53c0,6.64-.78,27.89-.78,27.89H89c-3.42-20.81-5.83-42.09-5.83-54l-2,.46c.14,5.24-.48,20.76-1,30.54-.59,10.59-1.65,23-1.65,23h-4s-2.51-21.78-3.3-28.24C69.7,182.15,69.82,157.05,69.82,157.05Z"/><path class="cls-3" d="M92.47,162.07c-.06-2.59-.51-27.17-1.18-35.85-.34-4.38.53-10.08-8.13-11,0,0-.5,3.2-.93,3.2-.61,0-3.49-3.32-4.2-3.2-2.89.49-8.21,2.24-8.21,8.38,0,9-.09,35.34,0,38.47Z"/><path class="cls-6" d="M69.51,124.08c0,3.6.31,41.61.31,41.61h1.89c3.49,0,6.32-3.57,6.32-7.37v-43.1S69.51,114.89,69.51,124.08Z"/><path class="cls-6" d="M69.82,140.66c0-3.54,0-17.67,0-17.67s-3.62,22.11-6,34c-.75,3.71,2.39,8.69,5.88,8.69h.09Z"/><path class="cls-6" d="M87.88,116.31a18.18,18.18,0,0,0-4.72-1.09l9.31,48.72s3.54.14,2.93-5.3c-1.55-13.75-1.62-17.21-4.12-37.42C91.12,119.73,90.8,117.87,87.88,116.31Z"/><path class="cls-5" d="M82.15,118.41s-1-.68-1.29-1-2-2.14-2.83-2.19c0,0-.69.19-.12,1s2.88,4,3.21,5.61A5,5,0,0,0,82.15,118.41Z"/><path class="cls-5" d="M82.15,118.41s.25-.07.36-.7l.65-2.49.79,4.15s.38,1.49-.44,2.07C83.51,121.44,82.73,118.66,82.15,118.41Z"/><path class="cls-7" d="M82.15,118.41s.21.06.51.6a10.06,10.06,0,0,1,.85,2.43s3.09,13.63,2.85,19.44l-1.91,5.36a31.81,31.81,0,0,0-3-4.86s1.27-18.08.38-20.76A7.15,7.15,0,0,0,82.15,118.41Z"/><path class="cls-4" d="M69.78,105.1s10.52-8.82,18-9.23c0,0-3.29-10-13.24-5.42C64.9,94.88,69.78,105.1,69.78,105.1Z"/><path class="cls-4" d="M71.23,103.94a35.44,35.44,0,0,1,4.17-3.48A38.17,38.17,0,0,1,80,97.58a22.69,22.69,0,0,1,5.16-2,12.56,12.56,0,0,1,2.8-.36,13,13,0,0,1,2.8.31h0a.5.5,0,0,1,.38.59.51.51,0,0,1-.54.39,14.62,14.62,0,0,0-5.11.39,29.22,29.22,0,0,0-4.92,1.83c-1.61.73-3.18,1.57-4.74,2.45S72.77,103,71.23,103.94Z"/><path class="cls-8" d="M74.56,90.45a11.11,11.11,0,0,0-3.76,2.7,10.49,10.49,0,0,1,12,3.19,15.78,15.78,0,0,1,4.75-1.08C86.41,92.74,82.8,86.66,74.56,90.45Z"/><path class="cls-6" d="M64.38,138.17s9.06-14.57,10.34-16.3c.69-.93,1-2.88.12-3.69s-2-1.69-3.53-.05S58.88,135,58.88,135Z"/><path class="cls-6" d="M61.77,156.64s2.21-16.36,2.61-18.47c.48-2.55-.57-2.91-1.53-3.58s-3.05-1.13-4,.39c-1.16,1.89-1.14,21.43-1.14,21.43Z"/><path class="cls-4" d="M84.8,158.85l-23.11.21-21.93-7.27a8,8,0,0,0-1.39,8.85l23.11-.21,21.94,7.27A8,8,0,0,0,84.8,158.85Z"/><path class="cls-1" d="M61.77,159.06h1.08c-.25-.78-.54-.84-1-1.41a2.1,2.1,0,0,1-.54-1l-1.6-.1c-.06,1.39,1.15,1.59,1.6,2C61.49,158.67,61.78,159,61.77,159.06Z"/><path class="cls-1" d="M58.52,156.49a3.71,3.71,0,0,1-.6,1.8,2.88,2.88,0,0,0-.75,2.65c.45,1.19,3,1.82,3.64,1.18,0,0,.77-1,.67-1.69,0,0-.26-1.13.29-1.37v-.45l-1.41-2.07Z"/><polygon class="cls-1" points="208.12 107.75 204.02 111.4 200.06 107.75 200.06 104.39 208.12 104.39 208.12 107.75"/><path class="cls-9" d="M216.44,157.75H190.15l3,59.11a10.47,10.47,0,0,0,4.13,1.25,5.41,5.41,0,0,0,3.62-1.14l2.55-50.81,4.94,23.41h0l-2.06,26.75s.38,1.47,3.07,1.47a16.78,16.78,0,0,0,4-.53l6.28-27.69h0Z"/><path class="cls-4" d="M218.48,161.25,217,115.92c0-1.48-1.31-2.42-2.67-3-2.26-.91-6.17-2.57-6.17-2.57l-.08-3.52-3.93,2.9-4.11-2.36v3.31a44,44,0,0,0-7.44,2.24c-1.28.74-2.82,1.74-2.82,2.43l-1.16,45.88s10.83,2.48,14.84,2.48S218.48,161.25,218.48,161.25Z"/><path class="cls-1" d="M211.69,100.92c0,1.46-3.75,5.94-7.6,5.94s-7.6-4.18-7.6-5.94V95.29a7.59,7.59,0,0,1,7.6-7.59h0a7.59,7.59,0,0,1,7.6,7.59Z"/><path class="cls-1" d="M213.05,98.48c-.28.83-1,1.35-1.63,1.14a1.44,1.44,0,0,1-.62-1.9c.28-.84,1-1.35,1.63-1.14A1.45,1.45,0,0,1,213.05,98.48Z"/><path class="cls-1" d="M195.13,98.48c.28.83,1,1.35,1.63,1.14a1.44,1.44,0,0,0,.62-1.9c-.28-.84-1-1.35-1.64-1.14A1.45,1.45,0,0,0,195.13,98.48Z"/><path class="cls-3" d="M196.49,98.1s.83-2.94,2.62-4.26l1.09-1.63s1.18-.31,3.89.78,3.4,2.74,6,2.15a24.74,24.74,0,0,1,1.32,3.13,24,24,0,0,0,.77-3.77c.2-1.82.49-6.54-5.22-8-5.94-1.56-8.48,2.24-8.48,2.24s-.55-.62-2,1.72c-1.09,1.69-1.15,4.5,0,7.84"/><path class="cls-3" d="M211.73,98.58a5.78,5.78,0,0,0-1.22-2.67s.49,3.45-.81,5.12a6.42,6.42,0,0,1-.52.57l-.32-.5-.1-.08a7.69,7.69,0,0,0-4.5-1.46c-2.38,0-4.44.53-5.26,1.35a4.45,4.45,0,0,0-.41.47l-.31-.35c-1.3-1.67-.79-5.53-.79-5.53a8.2,8.2,0,0,0-1.23,3.08,6.2,6.2,0,0,0,.57,3.89c1.06,1.59,4.6,4,4.6,4a7.6,7.6,0,0,0,2.56.93,7.6,7.6,0,0,0,2.56-.93s3.61-2.21,4.68-3.8S211.73,98.58,211.73,98.58Zm-7.74,6.2c-.72,0-2.74-1.17-4.25-2.37a3.36,3.36,0,0,1,.34-.41c.35-.35,1.79-.9,4.18-.9a6.27,6.27,0,0,1,3.45,1.06l.29.44C206.52,103.73,204.68,104.78,204,104.78Z"/><path class="cls-3" d="M200.89,217a30.51,30.51,0,0,0-.18,3.84c0,1.18-2.3,1.65-3.69,1.65-1.84,0-2.6,5.46-8.22,5.46-3.18,0-3.8-2.22-2.27-3.64a62.69,62.69,0,0,0,6.61-7.42L192,207.37h10.18Z"/><path class="cls-3" d="M206.34,216.32V221c0,1.18,1.53,1.46,2.92,1.46,1.84,0,2.6,5.46,8.22,5.46,3.18,0,3.8-2.22,2.27-3.64-3-2.79-4.4-5.07-6.31-7l2-7.53-8.65-2.36Z"/><path class="cls-9" d="M203.49,163.73c-.25-4.5-.36-9-.45-13.5s-.1-9-.09-13.5.06-9,.16-13.49.22-9,.4-13.49l0-.37.25-.15c.7-.43,1.4-.85,2.12-1.25s1.45-.78,2.2-1.13c-.56.62-1.14,1.2-1.73,1.77s-1.2,1.11-1.81,1.66l.26-.52q.1,6.75.07,13.5c0,4.5-.09,9-.18,13.49s-.24,9-.43,13.5S203.85,159.24,203.49,163.73Z"/><path class="cls-4" d="M215.74,113.7l-4.48,8L230.4,135a4.26,4.26,0,0,0,5.61-.18,3.58,3.58,0,0,0-.23-5.06Z"/><path class="cls-4" d="M190,114.94l-.52,14.8-9.06,10.83c-.87,1.79-3.33,1.91-5.11,1a3.26,3.26,0,0,1-1.55-4.54Z"/><path class="cls-10" d="M231.51,129.37a3.6,3.6,0,0,1,4.92,1.27h0a4.52,4.52,0,0,1-.92,5.31l-18.66,9.57c-.36.25-3.1-3.94-2.7-4.48Z"/><path class="cls-11" d="M179.32,142.45a3.6,3.6,0,0,1-5.07-.38h0a4.53,4.53,0,0,1,0-5.39l16.44-13.75c.3-.3,4,4.35,3.68,4.95Z"/><path class="cls-7" d="M216.9,147.72a1.36,1.36,0,0,1-.11,1.93h0a1.36,1.36,0,0,1-1.92-.11l-34.63-40.07a1.36,1.36,0,0,1,.11-1.92h0a1.36,1.36,0,0,1,1.92.11Z"/><path class="cls-2" d="M187.69,108.93l-7.62,2.72-11.83,4.22s1,6,3.86,9.18,8.67,4.9,8.67,4.9l5.57-11.26,3.58-7.26Z"/><path class="cls-3" d="M174.84,122.62c-2-2.22-3.09-5.87-3.57-7.83l-3,1.08s1,6,3.86,9.18,8.67,4.9,8.67,4.9l1.44-2.9C180.3,126.33,176.77,124.79,174.84,122.62Z"/><path class="cls-1" d="M193.73,126.5s3.44-.58,3.75-1.84-1.85-5.82-4.43-4.53l.68.78s-.34,2.24-2.12,1.72c0,0-.35-.06-.63.46A41.89,41.89,0,0,1,193.73,126.5Z"/><path class="cls-1" d="M216.18,145s-3.89,4.13-7.08,2.82c-.95-.39-1.79-1.58.75-4,0,0,2.31-.13,2.48-1.3a1.44,1.44,0,0,1,2.08-.29S215.24,143.61,216.18,145Z"/><path class="cls-4" d="M193.64,92.44c3.52.4,7,.81,10.5.94,1.75.08,3.49.07,5.22,0a35.77,35.77,0,0,0,5.21-.69.26.26,0,0,1,.29.19.24.24,0,0,1-.12.27,16.71,16.71,0,0,1-5.19,1.77,27.8,27.8,0,0,1-5.46.42,33.87,33.87,0,0,1-5.43-.54,27.65,27.65,0,0,1-5.26-1.42.48.48,0,0,1-.27-.62.49.49,0,0,1,.5-.3Z"/><path class="cls-4" d="M194.84,93.37S196,83.91,204,83.91c9.15,0,9.15,9.64,9.15,9.64S206.31,96.23,194.84,93.37Z"/><rect class="cls-4" x="202.15" y="83.31" width="3.66" height="1.09"/><path class="cls-7" d="M206.8,88.69,204,87.51l-2.82,1.18s-.15,4,2.82,5.19C207,92.71,206.8,88.69,206.8,88.69Z"/><path d="M161.72,215.9s-.7.92-.7,3.91c0,1.37,1.78,1.69,3.4,1.69,2.14,0,1.56,5.48,8.1,5.48,3.7,0,3.57-3.13,1.79-4.79-3.48-3.24-4.93-3-7.19-6.29Z"/><path class="cls-3" d="M146.85,153.23c-.66,4.86-3.18,21.55-3.34,26.61-.12,4.06.39,10.61-.23,12.16-4.39,11-3.46,24-3.46,24a3.87,3.87,0,0,0,1.68.34,14.67,14.67,0,0,1,2.92,0l14.88-45.45,2.25,45.26s.2.18,1.93.18a30.18,30.18,0,0,0,3.72-.29s1.25-18,2.51-26c1.52-9.59,1.26-28.6,1.49-36.88Z"/><path d="M171,167.76c.06-4.17.08-8,.16-11H146.85c-.32,2.34-1.07,6.62-1.78,11Z"/><path d="M140.05,215.71c-.3.58-.52,2-.87,2.75-.92,2-2.26,3-3.41,5.09-.68,1.18-.42,4,2.81,4.35a4.11,4.11,0,0,0,4.73-3.36c.47-3.07.34-5.26,1.09-8.16.29-1.14-1.11-1.61-2.27-1.59A2.18,2.18,0,0,0,140.05,215.71Z"/><polygon class="cls-12" points="162.07 109.91 166.24 111.1 159 128.63 151.04 111.14 155.21 109.91 162.07 109.91"/><path class="cls-3" d="M173.06,165.25,174,116c0-1.51-1.31-2.48-2.68-3-2.25-.94-7-2.38-7-2.38L159,128.63l-6-17.95a32.48,32.48,0,0,0-6.25,2.23c-1.28.76-2.82,1.78-2.82,2.49v49.85h13.65l1.38-8.47,3.4,8.47Z"/><path class="cls-1" d="M162.43,109.91s-3.23,4.24-3.45,4.24-3.42-4.24-3.42-4.24v-3.36h6.87Z"/><path class="cls-1" d="M166.6,102.6c0,1.46-3.76,5.94-7.61,5.94s-7.6-4.19-7.6-5.94V97a7.6,7.6,0,0,1,7.6-7.6h0A7.61,7.61,0,0,1,166.6,97Z"/><path class="cls-1" d="M168,100.15c-.29.84-1,1.35-1.64,1.14a1.43,1.43,0,0,1-.61-1.89c.28-.84,1-1.35,1.63-1.14A1.44,1.44,0,0,1,168,100.15Z"/><path class="cls-1" d="M150,100.15c.29.84,1,1.35,1.64,1.14a1.43,1.43,0,0,0,.61-1.89c-.28-.84-1-1.35-1.63-1.14A1.44,1.44,0,0,0,150,100.15Z"/><path class="cls-6" d="M152.31,101.15c.07-.78-.45-6.58,6.54-6.58,7.16,0,6.82,5.89,6.7,6.58h.64l.41-1.76s1.94-4.89-4.1-9.66a2.13,2.13,0,0,1-1-2.4A3.74,3.74,0,0,0,159,89a4.84,4.84,0,0,1,1.35-3s-6,.32-8.89,7.87a9.92,9.92,0,0,0,.2,7.3Z"/><path class="cls-4" d="M165.21,134.88a1,1,0,1,1-1-1A1,1,0,0,1,165.21,134.88Z"/><path class="cls-4" d="M165.21,140.29a1,1,0,1,1-1-1A1,1,0,0,1,165.21,140.29Z"/><path class="cls-4" d="M165.21,145.7a1,1,0,1,1-1-1A1,1,0,0,1,165.21,145.7Z"/><path class="cls-4" d="M155.84,134.88a1,1,0,1,1-1-1A1,1,0,0,1,155.84,134.88Z"/><path class="cls-4" d="M155.84,140.29a1,1,0,1,1-1-1A1,1,0,0,1,155.84,140.29Z"/><path class="cls-4" d="M155.84,145.7a1,1,0,1,1-1-1A1,1,0,0,1,155.84,145.7Z"/><polygon points="164.3 110.53 167.71 111.6 164.65 121.9 159 128.63 164.3 110.53"/><polygon points="153.72 110.35 150.09 111.47 153.15 121.9 159 128.63 153.72 110.35"/><path class="cls-5" d="M159,114.17a26.91,26.91,0,0,1,1.47-2.46,8.77,8.77,0,0,1,1.91-1.81,9.93,9.93,0,0,1,1.17.14,11.22,11.22,0,0,1,1.12.49,21.59,21.59,0,0,1,0,3S161.45,111.71,159,114.17Z"/><path class="cls-5" d="M159,114.17a26.91,26.91,0,0,0-1.47-2.46,8.77,8.77,0,0,0-1.91-1.81,9.93,9.93,0,0,0-1.17.14,11.22,11.22,0,0,0-1.12.49,23.66,23.66,0,0,0,0,3.17S156.49,111.71,159,114.17Z"/><rect class="cls-4" x="165.24" y="124.2" width="5.2" height="1.46"/><path class="cls-3" d="M172.69,113.58a19.6,19.6,0,0,1,8.9,15c1.23,17.07-1.7,36.29-1.7,36.29h-6.2l.79-26.29-.62-8.65Z"/><path class="cls-1" d="M179.09,164.94s2.55,6.3-3.11,9.24c-.8.42-2.32.42-1.72-2.33s.91-4.07.08-3.53-1.4,1.14-1.15-.11a20.38,20.38,0,0,1,1.22-3.29Z"/><path class="cls-4" d="M180.23,162.47h-6.47l0,1.35h6.33Q180.13,163.28,180.23,162.47Z"/><path class="cls-4" d="M180.49,160.32h-6.66l0,1.35h6.54C180.38,161.26,180.43,160.8,180.49,160.32Z"/><path class="cls-4" d="M180.73,158.17h-6.84l0,1.35h6.73Q180.65,158.88,180.73,158.17Z"/><path class="cls-3" d="M144.93,114.21a17.84,17.84,0,0,0-8.47,14.42c-1.23,17.07,1.14,36.29,1.14,36.29h6.21L143,138.63l1-8.65Z"/><path class="cls-1" d="M138.41,164.94s-2.55,6.3,3.11,9.24c.8.42,2.31.42,1.71-2.33s-.91-4.07-.07-3.53,1.39,1.14,1.14-.11a19.71,19.71,0,0,0-1.21-3.29Z"/><path class="cls-4" d="M137.27,162.47h6.46l0,1.35h-6.32Q137.38,163.28,137.27,162.47Z"/><path class="cls-4" d="M137,160.32h6.67l0,1.35h-6.54C137.12,161.26,137.06,160.8,137,160.32Z"/><path class="cls-4" d="M136.77,158.17h6.83l0,1.35h-6.73C136.87,159.09,136.82,158.64,136.77,158.17Z"/><polygon class="cls-3" points="156.96 113.01 158.22 115.42 159.78 115.42 161.04 113.01 156.96 113.01"/><polygon class="cls-3" points="159.78 115.42 159 115.42 158.21 115.42 156.96 122.03 159 128.63 161.04 122.03 159.78 115.42"/><polygon class="cls-4" points="168.33 114.2 167.49 113.94 168.13 111.74 168.96 112.04 168.33 114.2"/><polygon class="cls-4" points="169.81 114.71 168.96 114.45 169.62 112.25 170.45 112.56 169.81 114.71"/><polygon class="cls-4" points="171.28 115.22 170.44 114.97 171.08 112.8 171.91 113.1 171.28 115.22"/><polygon class="cls-4" points="148.91 114.2 149.75 113.94 149.16 111.82 148.31 112.16 148.91 114.2"/><polygon class="cls-4" points="147.44 114.71 148.28 114.45 147.68 112.44 146.88 112.85 147.44 114.71"/><polygon class="cls-4" points="145.96 115.22 146.81 114.97 146.28 113.21 145.44 113.76 145.96 115.22"/><path class="cls-3" d="M161.61,85.32c-1.32-.46-4.25-.71-5.66,0-2.69,1.35-9,6.51-9,6.51a31,31,0,0,0,4,4.8c3.5-4.59,12.31-4.53,15.59,0a31.59,31.59,0,0,0,4-4.8S164.45,86.3,161.61,85.32Z"/><path d="M158.78,93.24a9.87,9.87,0,0,0-7.92,3.3l2.72,1.8a5.67,5.67,0,0,0,3,.83h4.31a5.71,5.71,0,0,0,3.05-.83l2.72-1.8A9.87,9.87,0,0,0,158.78,93.24Z"/><path class="cls-4" d="M150.83,96.54a7.83,7.83,0,0,1,3.42-2.81,11.6,11.6,0,0,1,4.51-.94,11.3,11.3,0,0,1,4.53.89,7.59,7.59,0,0,1,3.45,2.83.21.21,0,0,1-.08.29.23.23,0,0,1-.3,0A8.38,8.38,0,0,0,163,94.38a11.37,11.37,0,0,0-4.18-.74,11.51,11.51,0,0,0-4.2.74,8.85,8.85,0,0,0-3.48,2.35.18.18,0,0,1-.23,0,.15.15,0,0,1,0-.2Z"/><path class="cls-4" d="M159.47,89.71l-.69.57-.69-.57h-2.91s.67,1.15,1.21,1.15h4.78c.54,0,1.21-1.15,1.21-1.15Z"/><path class="cls-3" d="M250.87,104.49s11.3-1.15,14.17,3.79c0,0,1.58,2.78,0,11.81s-2.83,26.12-2.83,26.12.51,9.41-2.86,10C259.35,156.23,241.94,124.1,250.87,104.49Z"/><path class="cls-6" d="M253,106s2.69-.82,3.75-5.79c.18-.86.71-3,.85-4.35.5-4.6-2.19-8.09-8.13-8.09-2.62,0-6.29,1.52-8.62,5.94-2.82,5.34-.64,6.71-3,9.19s-2.54,4.23-.78,6.64,3,4.24,2.13,6.15S238,122.8,243,120.75s10-12.36,10-12.36Z"/><rect class="cls-1" x="247.16" y="105.18" width="5.81" height="6.19"/><path class="cls-1" d="M256.21,100.32c-.5,2.16-3.54,6.26-6.27,6.26-2.35,0-6.12-3.41-6.28-5.65,0,0-.59-4-.67-5.37-.25-4,3.48-7.24,6.95-7.24h0c3.48,0,7.34,3.25,7.06,7.24A38.42,38.42,0,0,1,256.21,100.32Z"/><path class="cls-6" d="M256.77,97.45s-1.32-.14-1.39,1.56c0,0,0-3.41-1.24-5.43a6.71,6.71,0,0,1-4.95,2.65c-3.17.11-4.89,1.09-5.73,3.32,0,0-1.62-3.64-.49-6.92s5.19-4.65,7.43-4.56S259.11,91.24,256.77,97.45Z"/><path class="cls-1" d="M232.29,134a3.47,3.47,0,0,0,2.17,3.95c1.44.74,3.89-1.07,4.45-2.59.85-2.33,2.39-7.5,2.39-7.5,0-1.57,0-17.4-.34-16.91C237.14,116.51,232.29,134,232.29,134Z"/><path class="cls-5" d="M260.77,112a59.67,59.67,0,0,0-7.8-2.59,4.69,4.69,0,0,1-2.91,1.46,4,4,0,0,1-3-1.46,21.83,21.83,0,0,0-6.13,1.46l1,38h16.22l1.63-22.44Z"/><path class="cls-1" d="M263.51,221.72a38.19,38.19,0,0,1-5.33-5.35s1.63-33.55,2.33-37.91c1.4-8.87,1.7-21.35-2.36-31.06H241.84c-2.5,3.49-5.71,14.24-5.85,18.92-.11,3.76.62,12.45,0,13.88-2.22,5.55-2.69,36.43-2.69,36.43s-4.65,5.36-5.44,7-.52,3.7.61,4.17c1.34.54,4.09-1.14,4.82-2.33a52.27,52.27,0,0,0,3.4-7.58,3.5,3.5,0,0,0,0-1.28l13.95-51.79L253,216.47s.8,1.56,1.07,2a52.9,52.9,0,0,0,5.16,6.51c1,1,4.09,1.92,5.25,1.06C265.41,225.29,265.3,223.25,263.51,221.72Z"/><path class="cls-7" d="M261.54,220s-2.16-1.75-2.85.86c-.34,1.29-5.76-5.13-5.76-5.13l0,.79s.8,1.56,1.07,2a52.9,52.9,0,0,0,5.16,6.51c1,1,4.09,1.92,5.25,1.06,1-.72.84-2.73-.92-4.29S261.54,220,261.54,220Z"/><path class="cls-7" d="M236,218.09s-1.12,3.26-3.19,1.72a1.53,1.53,0,0,0-2.18.12,19.49,19.49,0,0,0-2.68,3.72c-.79,1.67-.52,3.7.61,4.17,1.34.54,4.09-1.14,4.82-2.33a52.27,52.27,0,0,0,3.4-7.58,3.5,3.5,0,0,0,0-1.28Z"/><path class="cls-7" d="M249.4,171.2l1.38-6.36-.4,6.36H262.2c.49-7.7-.34-17-4-23.8H241.88c-2.48,3.49-6.25,14.24-6.4,18.92,0,1.24,0,3,.09,4.88Z"/><path class="cls-1" d="M260.72,112s9.27,10.45,13.76,15.83L270.82,132l-10.75-9.31Z"/><path class="cls-1" d="M274.48,127.83s3.75,4.14.59,7.43L270.82,132Z"/><path class="cls-1" d="M261.3,144.9a29.48,29.48,0,0,0-8.65,2,.62.62,0,0,0-.35.79.63.63,0,0,0,.58.39.85.85,0,0,0,.22,0,22.31,22.31,0,0,1,3-.93,15.38,15.38,0,0,0-2.15,1.15.61.61,0,0,0-.17.85.63.63,0,0,0,.51.27.63.63,0,0,0,.34-.1,14.6,14.6,0,0,1,2.41-1.27,7.14,7.14,0,0,0-1.54,1.63.62.62,0,0,0,.15.86.66.66,0,0,0,.35.11.6.6,0,0,0,.5-.27,6.08,6.08,0,0,1,1.3-1.36,8.41,8.41,0,0,0-.71,1.16.62.62,0,0,0,.3.82.76.76,0,0,0,.26.06.61.61,0,0,0,.55-.36,4.72,4.72,0,0,1,.53-.84,6.46,6.46,0,0,1,2.26-1.7,2.48,2.48,0,0,0,1.19-1.1C262.5,146.18,261.64,144.87,261.3,144.9Z"/><path class="cls-1" d="M260.5,145a7.48,7.48,0,0,0-2.27-.31l0,.63s1.49-.16,1.9-.25Z"/><path class="cls-1" d="M270.82,132l-10.18,13a1.7,1.7,0,0,0,1.17,2.55l13.26-12.26Z"/><polygon class="cls-3" points="224.9 111.57 228.29 122.85 234.15 122.03 231.93 110.96 224.9 111.57"/><path class="cls-1" d="M237.72,133.3s-10.19-10.46-10.19-11.67c0-2.07,1.38-4.95,1.38-6.16,0-2.08-.69-2.64-2.09-2.64s-2.72.45-2.72,4.57a28.07,28.07,0,0,0,1.48,6.83C227,127.6,233,136.92,233,136.92a2.87,2.87,0,0,0,4.16.49A2.94,2.94,0,0,0,237.72,133.3Z"/><path class="cls-3" d="M254.67,110s2.6-.16,3.86,1.19c0,0-2,19.14.56,25,0,0,.9,3-.35,4.84,0,0-3-1.47-3.54-3.76C255.13,136.86,252,118.8,254.67,110Z"/><path class="cls-3" d="M246.24,109.55s-3-.89-4.11.89c0,0,2.45,19.91-.51,25.92,0,0-.72,3.08.12,4.37,0,0,4-3.64,4.5-6C246.24,134.68,248.31,120.88,246.24,109.55Z"/><path class="cls-4" d="M265,89.4c.27,1.08-6.72,3.74-15.61,5.93s-16.32,3.1-16.59,2,6.73-3.73,15.62-5.93S264.72,88.32,265,89.4Z"/><path class="cls-4" d="M258.71,91c-2.38-5.23-4.12-7.07-11.71-5.2s-8,4.84-7.95,10.06Z"/><path class="cls-3" d="M239.05,94.24c3.06-1.22,11.77-4.44,18.91-4.8-.29-.56-.58-1.07-.88-1.53-6.75.51-14.41,3.21-17.89,4.57A15.9,15.9,0,0,0,239.05,94.24Z"/><path class="cls-3" d="M278.58,215.82s1,.91,1,3.9c0,1.38-1.78,1.7-3.4,1.7-2.14,0-1.55,5.47-8.1,5.47-3.7,0-3.57-3.13-1.79-4.78,3.48-3.25,5.7-3,8-6.29Z"/><path class="cls-1" d="M278.58,216s-.46.78-2.19.78a3.11,3.11,0,0,1-2.18-.78v-2.61h4.37Z"/><path class="cls-1" d="M294.83,216.28a5.29,5.29,0,0,0,2.56.45,4.57,4.57,0,0,0,2.56-.79l-.25-2.6h-4.9Z"/><path class="cls-4" d="M277.53,154.75s-3.82,15.56-4.83,26.1c-.57,6,1.14,32.81,1.14,32.81h5s1.68-23.45,3.16-29.19c3.36-13,8.22-26.73,8.22-26.73l4.32,55.92h6.42s1.73-24.59,2.17-30.63c.52-7.05.73-28.28.73-28.28Z"/><path class="cls-7" d="M302.8,123.58l5.77-1.21c-.52-6.67-2.3-10.62-7.17-13.59-1.8-1.1-7.63-1.65-7.63-1.65h-5.83a14.32,14.32,0,0,0-6.46,1.55c-3.54,2-6.05,6.18-7.46,13.45l5.19,1.3s-2,23.44-2.6,30.89a5,5,0,0,0,4.87,5c4.87,0,4.52-1.68,6.74-3.05a7.35,7.35,0,0,1,4.15-1.51h7.31c1.92,0,3.47.4,4.15,0,.42-.25,1.08-5.28,1.06-5.66-.44-8.1-.55-13.41-2.09-25.51Z"/><polygon class="cls-1" points="293.77 107.13 290.81 107.13 287.94 107.13 287.94 99.84 293.77 99.84 293.77 107.13"/><path class="cls-1" d="M297.89,96a7,7,0,0,1-7,7h0a7,7,0,0,1-7-7V92.37a7,7,0,0,1,7-7h0a7,7,0,0,1,7,7Z"/><path class="cls-1" d="M283.54,107.82a2.38,2.38,0,0,0,.58,1.53c1.24,1.82,3.86,6.11,6.77,6.11s5.53-4.29,6.78-6.11c.52-.76.59-1.26.45-1.6-2.11-.41-4.31-.62-4.31-.62h-6A15.55,15.55,0,0,0,283.54,107.82Z"/><path class="cls-1" d="M274.15,122.16l5.09,1.25L277.75,136a3,3,0,0,1-3.12,2.42,2.53,2.53,0,0,1-2.15-2.85Z"/><path class="cls-1" d="M273.74,133.67a2.54,2.54,0,0,0-1,3.44h0a2.53,2.53,0,0,0,3.44,1l11.88-8.21A1.06,1.06,0,0,0,287,128Z"/><rect class="cls-3" x="286.16" y="123.08" width="10.97" height="5.13" transform="translate(130.23 399.13) rotate(-82.76)"/><path class="cls-1" d="M288.1,129.87a7.09,7.09,0,0,0,6.6-4.82c.39-1.15-1-1.65-2.79.36-1.22,1.37-3.22,2.4-3,1.25.09-.47.43-1.68-.1-1.89C288,124.46,287,128,287,128Z"/><path class="cls-1" d="M299.08,95.31c-.27.78-.94,1.25-1.52,1.06a1.35,1.35,0,0,1-.57-1.76c.26-.77.94-1.24,1.51-1A1.33,1.33,0,0,1,299.08,95.31Z"/><path class="cls-1" d="M282.49,95.31a1.15,1.15,0,1,0,2.08-.7c-.26-.77-.93-1.24-1.51-1A1.33,1.33,0,0,0,282.49,95.31Z"/><path class="cls-1" d="M302.82,123.58l5.59-1.17,1.18,17.42a3,3,0,0,1-1.83,3.5,2.52,2.52,0,0,1-3.14-1.7Z"/><path class="cls-1" d="M304.34,139.44a2.83,2.83,0,0,1,3.82-1.2h0a2.82,2.82,0,0,1,1.2,3.81l-7.2,17.62c-.72,1.38-4-1-3.27-2.44Z"/><path class="cls-3" d="M299.86,215.71c.29.57.26,2,.61,2.75.92,2,2.26,3,3.41,5.09.67,1.18.42,4-2.81,4.35a4.12,4.12,0,0,1-4.74-3.36,49.53,49.53,0,0,0-1.53-7.46c-.49-1.7,1.6-2.28,2.76-2.26C298.46,214.84,299.5,215,299.86,215.71Z"/><path class="cls-3" d="M283.82,95a7.05,7.05,0,0,0,7,8.11,6.89,6.89,0,0,0,7-7.41s-1.82,3.72-7.66,2.71C284.78,97.43,283.82,95,283.82,95Z"/><path class="cls-3" d="M286.42,89.3s-2.6,3.07-2.6,5.66c0,0-.86-4.25.86-6Z"/><path class="cls-3" d="M292.71,88s4.93,3,5.14,7.65a16.22,16.22,0,0,1,0-2C297.77,93.29,298.42,86.32,292.71,88Z"/><path class="cls-3" d="M297.66,90.59a3.84,3.84,0,0,0-4.23-1.93c-3,.61-6.52,3.62-8.91.66s-.74-7.21,1.1-7.28c0,0-1.17,3.3,4.4.3C292.89,80.8,299,83,297.66,90.59Z"/><path class="cls-3" d="M297.84,93.61s2.6-4.89-.1-8.27a9.08,9.08,0,0,1-.15,1.12A10.26,10.26,0,0,0,297.84,93.61Z"/><path class="cls-5" d="M297.2,96.39a3,3,0,1,1-2.67-3.32A3,3,0,0,1,297.2,96.39Z"/><path class="cls-5" d="M289.91,95.59a3,3,0,1,1-2.67-3.31A3,3,0,0,1,289.91,95.59Z"/><path class="cls-13" d="M289.3,95.66a2,2,0,0,1,2.24.22"/><path class="cls-1" d="M316,131.68a3.67,3.67,0,0,0,2.3,4.19c1.53.78,4.11-1.13,4.7-2.74.91-2.46,2.54-7.94,2.54-7.94,0-1.66,0-18.42-.36-17.9C321.14,113.2,316,131.68,316,131.68Z"/><path class="cls-1" d="M321.75,131S311,119.91,311,118.62c0-2.19,2.35-4.8,2.17-6.06-.49-3.36-1-3.89-2.48-3.89s-3.32,1.11-3.32,5.47a29.9,29.9,0,0,0,1.56,7.24c1.51,3.57,7.9,13.43,7.9,13.43a3,3,0,0,0,4.41.52A3.11,3.11,0,0,0,321.75,131Z"/><path class="cls-14" d="M313.52,118.4a6.72,6.72,0,0,0,2.86,5.43c3.08,2.35,4.38,6.12,2.19,10-1,1.76-13.05,12.48-2.6,18.4,4.2,2.38.53,11.71,10.17,14.79,4.47,1.42,14.74-.2,13-15.28"/><rect class="cls-7" x="309.36" y="105.48" width="3.16" height="14" transform="translate(-19.7 116) rotate(-20.5)"/><polygon class="cls-2" points="288.73 62.57 289.51 64.66 292.17 64.99 307.2 105.15 308.95 104.5 293.48 63.17 288.73 62.57"/><rect class="cls-7" x="305.5" y="104.43" width="5.43" height="1.54" transform="translate(-17.32 114.8) rotate(-20.54)"/><rect class="cls-7" x="326.53" y="94.93" width="37.63" height="58.5" rx="5.81" ry="5.81"/><path class="cls-3" d="M351.32,156.23l2.08-47.9c0-1.56-1.38-2.56-2.83-3.15a56.46,56.46,0,0,0-7.86-1.92s-.56,3.44-3.68,3.44c-2.84,0-3.59-3.44-3.59-3.44s-5.81.75-7.86,1.92c-1.36.78-2.92,1.58-2.92,4.46l2.58,46.59Z"/><path class="cls-5" d="M350.1,112.56H328.62l-3.18,14.26,2.38,60.79,4.06,27.51a7.21,7.21,0,0,0,2.54.3c1.84,0,2.05-.19,2.05-.19l3.31-47.92,2.38,47.92s.21.19,2,.19a7.21,7.21,0,0,0,2.54-.3l4.06-27.51,2-59.64Z"/><path class="cls-1" d="M342.71,103.27s-.41,3.49-3.69,3.49c-3,0-3.58-3.49-3.58-3.49V99.71h7.27Z"/><path class="cls-1" d="M347.12,95.53c0,1.54-4,6.28-8.05,6.28-3.92,0-8-4.43-8-6.28v-6a8,8,0,0,1,8-8h0a8,8,0,0,1,8.05,8Z"/><path class="cls-1" d="M348.56,92.94c-.3.88-1.07,1.42-1.73,1.2a1.52,1.52,0,0,1-.65-2c.3-.88,1.07-1.42,1.73-1.2A1.52,1.52,0,0,1,348.56,92.94Z"/><path class="cls-1" d="M329.58,92.94c.3.88,1.08,1.42,1.74,1.2a1.52,1.52,0,0,0,.65-2c-.3-.88-1.07-1.42-1.73-1.2A1.53,1.53,0,0,0,329.58,92.94Z"/><path class="cls-3" d="M331.88,215.12c-.3.6-.54,2-.91,2.87-1,2.14-2.36,3.21-3.58,5.34-.7,1.25-.43,4.24,3,4.56a4.33,4.33,0,0,0,5-3.52c.49-3.21.35-5.52,1.13-8.56.31-1.19-1.16-1.69-2.38-1.67A2.29,2.29,0,0,0,331.88,215.12Z"/><path class="cls-3" d="M346.69,215.12c.31.6.55,2,.92,2.87,1,2.14,2.36,3.21,3.57,5.34.71,1.25.44,4.24-2.94,4.56a4.33,4.33,0,0,1-5-3.52c-.49-3.21-.35-5.52-1.13-8.56-.31-1.19,1.16-1.69,2.38-1.67A2.27,2.27,0,0,1,346.69,215.12Z"/><path class="cls-3" d="M347,92.75a16.37,16.37,0,0,0,.75-4.42c0-3.57-1.88-8-8.65-8-5.07,0-8.29,4.07-8.29,8.61a20.85,20.85,0,0,0,.25,4.22c.07.47.6.32.65,0,.15-1.27,0-4.74,1-5.76,0,0,.85,2,4.53,2s3.9-3,6.5-3a3.14,3.14,0,0,1,2.47,1.44c.58.91.38,3.39.15,4.74C346.28,92.93,346.84,93.17,347,92.75Z"/><polygon class="cls-3" points="336.45 215.81 338.23 195.73 328.42 195.73 331.58 216 336.45 215.81"/><polygon class="cls-3" points="342.13 215.81 340.59 195.73 350.4 195.73 347 216 342.13 215.81"/><polygon class="cls-5" points="348.31 116.09 344.21 116.09 344.21 103.48 348.31 104.25 348.31 116.09"/><polygon class="cls-5" points="329.47 116.09 333.58 116.09 333.58 103.48 329.47 104.25 329.47 116.09"/><path class="cls-3" d="M347.1,114.2a.91.91,0,1,1-.91-.91A.91.91,0,0,1,347.1,114.2Z"/><path class="cls-3" d="M332.43,114.2a.91.91,0,1,1-1.82,0,.91.91,0,1,1,1.82,0Z"/><polygon class="cls-3" points="326.31 152.91 351.95 152.91 352.09 148.86 326.14 148.86 326.31 152.91"/><rect class="cls-2" x="335.75" y="148.86" width="6.73" height="4.05"/><path class="cls-4" d="M343.66,97.41l-.81-.63a14,14,0,0,0,4.73-6.9l.24,1A10.76,10.76,0,0,1,343.66,97.41Z"/><path class="cls-4" d="M334.67,97.41l.82-.63a14.1,14.1,0,0,1-4.74-6.9l-.23,1A10.78,10.78,0,0,0,334.67,97.41Z"/><path class="cls-3" d="M341.12,95.17a4.28,4.28,0,0,0-2.21-2.07h0a4.32,4.32,0,0,0-2.22,2.07c-.94,2-3.75,1.49-2.8,4.54,0,0,1.38,2.24,5,2.24h0a5.83,5.83,0,0,0,5-2.24C344.88,96.66,342.07,97.15,341.12,95.17Z"/><path class="cls-2" d="M346.59,98.12a3.41,3.41,0,1,1-3.41-3.41A3.41,3.41,0,0,1,346.59,98.12Z"/><path class="cls-3" d="M345.34,98.12A2.16,2.16,0,1,1,343.18,96,2.16,2.16,0,0,1,345.34,98.12Z"/><path class="cls-2" d="M338.56,98.12a3.41,3.41,0,1,1-3.41-3.41A3.41,3.41,0,0,1,338.56,98.12Z"/><path class="cls-3" d="M337.31,98.12A2.16,2.16,0,1,1,335.15,96,2.16,2.16,0,0,1,337.31,98.12Z"/><path class="cls-3" d="M325.22,126.53l.47-1.57c0-.93.9-6.93.84-11.67,0-3.66-1.19-6.23-1.34-6-2.65,3.86-4.22,7.52-6.06,13.46Z"/><path class="cls-4" d="M309.59,123.15s3.35-1.61,1.41-4.41c-1.3-1.87,2.45-5,2.26-6.31-.51-3.51-1-4.06-2.58-4.06s-3.46,1.16-3.46,5.71a31.44,31.44,0,0,0,1.62,7.53C309,122,309.28,122.57,309.59,123.15Z"/><path class="cls-3" d="M339.13,118.61a7.92,7.92,0,1,0,7.92,7.92A7.93,7.93,0,0,0,339.13,118.61Zm0,1.74a6.11,6.11,0,0,1,4,1.53l-9.08,8.18a6.17,6.17,0,0,1,5.06-9.71Zm0,12.35a6.14,6.14,0,0,1-3.85-1.38l9-8.13a6.16,6.16,0,0,1-5.18,9.51Z"/><path class="cls-4" d="M346.06,103.83s-2.43,30.86,6,40.75c0,0,1.84-2.19.37-6.08,0,0-3-23.3-1.89-33.32C350.57,105.18,349.27,103.49,346.06,103.83Z"/><path class="cls-4" d="M332,103.83s2.43,30.86-6,40.75a8.89,8.89,0,0,1-.23-6.15s1.75-23.32,1.75-33.25C327.45,105.18,328.75,103.49,332,103.83Z"/><path class="cls-1" d="M352.21,106.15s9.81,11.07,14.56,16.77l-3.88,4.39-10.25-8Z"/><path class="cls-3" d="M359.12,113.19c-2.81-3.22-6.91-7-6.91-7l-.54,7.48,1,6.61,4,3.84Z"/><path class="cls-1" d="M366.77,122.92s4,4.39.62,7.86l-4.5-3.47Z"/><path class="cls-1" d="M362.89,127.31l-7.54,14.79a1.81,1.81,0,0,0,1.24,2.71l10.8-14Z"/><path class="cls-4" d="M356.05,142a31.84,31.84,0,0,0-9.17,2.09.65.65,0,0,0,.25,1.25.5.5,0,0,0,.23-.05,23.51,23.51,0,0,1,3.2-1,15.15,15.15,0,0,0-2.29,1.21.65.65,0,0,0,.36,1.19.59.59,0,0,0,.36-.11,16,16,0,0,1,2.56-1.34,7.62,7.62,0,0,0-1.64,1.73.65.65,0,0,0,.16.9.68.68,0,0,0,.38.12.66.66,0,0,0,.53-.28,5.94,5.94,0,0,1,1.37-1.44,7.11,7.11,0,0,0-.75,1.23.65.65,0,0,0,.31.86.71.71,0,0,0,.28.06.65.65,0,0,0,.59-.38,5.76,5.76,0,0,1,.55-.89,7,7,0,0,1,2.4-1.79,2.66,2.66,0,0,0,1.26-1.17A2.13,2.13,0,0,0,356.05,142Z"/><path class="cls-4" d="M355.2,142.1a7.48,7.48,0,0,0-2.34-.34l-.1.7s1.58-.17,2-.28Z"/><path class="cls-5" d="M392.72,154.35l2.93-42.62c0-1.46-1.35-2.39-2.77-2.94-2.33-.9-9.6-2.93-9.6-2.93h-7.1s-6.72,1.84-8.72,2.93c-1.33.73-2.92,1.71-2.92,2.4l3,43.16Z"/><path class="cls-3" d="M382.92,215.5s-.73.93-.73,4c0,1.42,1.84,1.75,3.52,1.75,2.21,0,1.61,5.67,8.38,5.67,3.82,0,3.69-3.24,1.85-5-3.6-3.35-5.11-3.06-7.45-6.49Z"/><path class="cls-3" d="M360.5,215.3c-.3.6-.54,2-.9,2.83-1,2.12-2.33,3.16-3.53,5.27-.69,1.22-.43,4.17,2.91,4.5a4.27,4.27,0,0,0,4.9-3.48c.48-3.17.35-5.44,1.12-8.43.3-1.18-1.15-1.67-2.35-1.65C361.72,214.36,360.86,214.56,360.5,215.3Z"/><path class="cls-1" d="M383.28,105.87a3.56,3.56,0,0,1-7.1,0v-3.48h7.1Z"/><path class="cls-1" d="M387.59,98.3c0,1.52-3.88,6.15-7.86,6.15s-7.86-4.33-7.86-6.15V92.49a7.86,7.86,0,0,1,7.86-7.87h0a7.86,7.86,0,0,1,7.86,7.87Z"/><path class="cls-1" d="M389,95.78c-.3.86-1.05,1.39-1.69,1.17a1.49,1.49,0,0,1-.64-2c.29-.87,1-1.39,1.69-1.17A1.49,1.49,0,0,1,389,95.78Z"/><path class="cls-1" d="M370.46,95.78c.29.86,1.05,1.39,1.69,1.17a1.49,1.49,0,0,0,.64-2c-.29-.87-1.05-1.39-1.69-1.17A1.49,1.49,0,0,0,370.46,95.78Z"/><path class="cls-3" d="M372.81,96.81c.08-.81-.46-6.81,6.77-6.81,7.41,0,7.05,6.1,6.93,6.81h.66l.42-1.82s1.9-7.34-3.69-10.12c-.44-.22-9-3.42-12,4.38a10.29,10.29,0,0,0,.2,7.56Z"/><path class="cls-5" d="M365.15,110.51s-10.08,7.41-10.08,32.16h8.82a65.76,65.76,0,0,0,1.79-14.88C365.34,117.06,365.15,110.51,365.15,110.51Z"/><polygon class="cls-5" points="363.53 167.8 357.6 167.8 355.07 142.47 363.94 142.47 363.53 167.8"/><path class="cls-15" d="M361.61,177.16h0c-.06-.07-.11-.14-.19-.22-.85-.9-1.54-1.62-1.54-2.32,0-.54,0-.93,0-1.54s.71-2,1.13-2,1.12,1.4,1.35,1.68l.14.15c-.54.14-1.52.67-.86,2.76C361.74,176,362.43,176.61,361.61,177.16Z"/><path class="cls-1" d="M358.73,167.8A25.13,25.13,0,0,0,358,174a4.15,4.15,0,0,0,2.84,4.07c.21.06.78,0,.87-.18s.13-.48-.3-.93c-.85-.9-1.45-1.63-1.45-2.33,0-.54,0-.94,0-1.55s.61-2,1-2,1.12,1.4,1.35,1.68c.69.85,1.85.64,1.23-.33a7,7,0,0,1-1.09-4.59Z"/><path class="cls-5" d="M394.3,109.61s10.07,7.42,10.07,32.17h-8.81s-2-8.2-1.8-14.88C394.11,116.17,394.3,109.61,394.3,109.61Z"/><polygon class="cls-5" points="395.91 166.91 401.84 166.91 404.37 141.78 395.46 141.39 395.91 166.91"/><path class="cls-15" d="M397.84,176.27h0l.18-.22c.86-.91,1.52-1.63,1.52-2.33,0-.54,0-.93,0-1.54s-.69-2-1.11-2-1.12,1.4-1.34,1.67a1.17,1.17,0,0,1-.15.16c.55.14,1.52.66.86,2.76C397.7,175.11,397,175.72,397.84,176.27Z"/><path class="cls-1" d="M400.71,166.91a24.77,24.77,0,0,1,.73,6.17,4.17,4.17,0,0,1-2.84,4.08c-.21.05-.78,0-.88-.18s-.12-.48.3-.93c.86-.91,1.46-1.63,1.46-2.33s0-.94,0-1.55-.62-2-1-2-1.12,1.4-1.34,1.67c-.7.86-1.85.65-1.24-.33a6.86,6.86,0,0,0,1.09-4.58Z"/><path class="cls-4" d="M392.91,108.76c-.34-.13-1.27-.43-2.28-.75l-1,12.27H370.32l-1-12.31a14,14,0,0,0-1.86.79c-1.33.73-2.92,1.71-2.92,2.39l3,43.16c-.68,5-3.29,18.62-3.46,23.85-.12,4.2.4,11-.24,12.57-4.54,11.37-3.57,24.86-3.57,24.86a4,4,0,0,0,1.74.35,14.79,14.79,0,0,1,3,0l15.39-47,2.32,46.81s.21.18,2,.18a31,31,0,0,0,3.84-.3s1.3-18.61,2.6-26.86c1.57-9.91,1.31-25.9,1.55-34.47l2.93-42.61C395.68,110.24,394.32,109.31,392.91,108.76Z"/><polygon class="cls-16" points="392.75 154.22 392.93 151.61 367.37 151.61 367.55 154.22 392.75 154.22"/><path class="cls-16" d="M373.16,126v9.89a1,1,0,0,0,1,1h12.4a1,1,0,0,0,1-1V126Z"/><rect class="cls-17" x="372.44" y="124.96" width="15.83" height="2.61"/><path class="cls-4" d="M388,92c0-4.4-2.76-8.48-8.24-8.48-6.7,0-8.52,4.24-8.56,8.64Z"/><path class="cls-16" d="M382.32,92a6.4,6.4,0,0,1,.3-8.1,9.28,9.28,0,0,0-2.89-.43,11.38,11.38,0,0,0-3.21.41,6.41,6.41,0,0,1,.37,8.23Z"/><path class="cls-16" d="M388,92.1c-.43-1.54-4.17-1.44-8.32-1.44s-8.16.13-8.57,1.59Z"/><rect class="cls-17" x="388.08" y="152.17" width="2.12" height="6.17"/><path class="cls-5" d="M389.72,153.33a.56.56,0,1,1-.56-.56A.56.56,0,0,1,389.72,153.33Z"/><rect class="cls-17" x="381.21" y="152.17" width="2.12" height="6.17"/><path class="cls-5" d="M382.85,153.33a.56.56,0,1,1-.56-.56A.56.56,0,0,1,382.85,153.33Z"/><path class="cls-16" d="M380.07,156.82v8.46a.73.73,0,0,0,.79.65h9.67a.73.73,0,0,0,.79-.65v-8.46Z"/><path class="cls-7" d="M465.16,156.46l2.39-45.95c0-1.48-1.3-2.42-2.68-3-2.25-.91-8.67-3.05-8.67-3.05L452.8,108l-3.5-3.42a63.63,63.63,0,0,0-8.05,3c-1.29.74-2.83,1.73-2.83,2.43l2.4,46.49Z"/><path class="cls-3" d="M440.32,154.3l1.4,33.95,4,27.07a7,7,0,0,0,2.5.3c1.8,0,2-.19,2-.19l3.26-47.17,2.34,47.17s.21.19,2,.19a7,7,0,0,0,2.5-.3l4-27.07.91-33.95Z"/><path class="cls-5" d="M441.21,107.28c1.65-.67,5.43-2,8-2.79,0,0,.87,64,.87,75.6a11.49,11.49,0,0,1-4.45,2.11c-4.12,1.13-6,.44-6,.44l-1.19-72.26C438.42,108.83,439.79,107.86,441.21,107.28Z"/><path class="cls-1" d="M456.38,104.57s-.15,3.72-3.58,3.72c-3.23,0-3.58-3.72-3.58-3.72v-3.51h7.16Z"/><path class="cls-1" d="M460.72,97c0,1.52-3.91,6.19-7.92,6.19s-7.92-4.36-7.92-6.19V91.08a7.92,7.92,0,0,1,7.92-7.92h0a7.93,7.93,0,0,1,7.92,7.92Z"/><path class="cls-1" d="M462.14,94.4c-.3.88-1.06,1.41-1.71,1.19a1.52,1.52,0,0,1-.64-2c.3-.87,1.06-1.41,1.71-1.19A1.52,1.52,0,0,1,462.14,94.4Z"/><path class="cls-1" d="M443.46,94.4c.29.88,1.05,1.41,1.7,1.19a1.5,1.5,0,0,0,.64-2c-.29-.87-1.05-1.41-1.7-1.19A1.51,1.51,0,0,0,443.46,94.4Z"/><path class="cls-18" d="M445.72,215.32c-.3.59-.53,2-.89,2.82-.95,2.11-2.33,3.16-3.53,5.26-.69,1.23-.43,4.18,2.91,4.49a4.24,4.24,0,0,0,4.89-3.46c.48-3.17.35-5.43,1.12-8.43.3-1.17-1.15-1.67-2.35-1.64A2.24,2.24,0,0,0,445.72,215.32Z"/><path class="cls-18" d="M460.25,215.32c.3.59.53,2,.9,2.82.94,2.11,2.32,3.16,3.52,5.26.69,1.23.43,4.18-2.91,4.49a4.24,4.24,0,0,1-4.89-3.46c-.48-3.17-.35-5.43-1.12-8.43-.3-1.17,1.15-1.67,2.35-1.64A2.24,2.24,0,0,1,460.25,215.32Z"/><path class="cls-5" d="M439.61,108.18s-9.89,3.56-9.89,30.22h7.87s1.09-14.19,1.11-17A83,83,0,0,1,439.61,108.18Z"/><polygon class="cls-5" points="437.54 161.83 431.57 161.83 429.72 138.4 437.59 138.03 437.54 161.83"/><path class="cls-15" d="M435.6,173h0a2.9,2.9,0,0,0-.19-.22c-.86-.91-1.69-1.65-1.69-2.35,0-.55,0-.95,0-1.56s.86-2,1.28-2,1.13,1.41,1.36,1.69a.71.71,0,0,0,.15.15c-.56.14-1.54.67-.87,2.78C435.73,171.81,436.43,172.43,435.6,173Z"/><path class="cls-1" d="M432.7,163.56a25.15,25.15,0,0,0-.73,6.22,4.22,4.22,0,0,0,2.86,4.11c.22.05.79,0,.89-.19s.13-.49-.31-.94c-.86-.91-1.46-1.64-1.46-2.35,0-.54,0-.94,0-1.55s.62-2,1-2,1.13,1.41,1.36,1.69c.7.86,1.86.65,1.24-.34a6.94,6.94,0,0,1-1.09-4.61Z"/><rect class="cls-19" x="431.97" y="161.83" width="5.11" height="2.37"/><path class="cls-5" d="M466.39,108.18s9.9,3.56,9.9,30.22h-7.88s-1.09-14.19-1.11-17A83,83,0,0,0,466.39,108.18Z"/><polygon class="cls-5" points="468.46 161.83 474.44 161.83 476.29 138.4 468.38 137.9 468.46 161.83"/><path class="cls-15" d="M470.4,173h0c.06-.06.11-.14.19-.22.86-.91,1.67-1.67,1.67-2.38,0-.55,0-.94,0-1.55s-.82-2-1.25-2-1.12,1.41-1.36,1.69a1,1,0,0,1-.14.15c.55.14,1.53.67.86,2.78C470.27,171.81,469.58,172.43,470.4,173Z"/><path class="cls-1" d="M473.3,163.56a25.15,25.15,0,0,1,.73,6.22,4.22,4.22,0,0,1-2.86,4.11c-.21.05-.79,0-.89-.19s-.12-.49.31-.94c.86-.91,1.46-1.64,1.46-2.35,0-.54,0-.94,0-1.55s-.62-2-1.05-2-1.12,1.41-1.36,1.69c-.7.86-1.86.65-1.24-.34a6.92,6.92,0,0,0,1.1-4.61Z"/><rect class="cls-19" x="468.92" y="161.83" width="5.11" height="2.37"/><path class="cls-5" d="M464.76,107.28c-1.64-.67-5.81-2-8.38-2.76,0,0,.11,64.18.11,75.84a9.47,9.47,0,0,0,4.45,2.1c4.31,1,6,.45,6,.45l.58-72.53C467.55,108.83,466.19,107.86,464.76,107.28Z"/><path class="cls-3" d="M445.58,93.76c.11-2,.43-6.15,6.94-6.15s7.11,4.22,7.16,6.15h.7l.34-1.27s2.09-5-3.79-9.42c-.42-.32-1.92-1-1.41-2.39a4.26,4.26,0,0,0-2.83,1.81,8,8,0,0,1,1.9-2.93S446.3,79.41,444.4,87a11.89,11.89,0,0,0,.43,6.72Z"/><path class="cls-3" d="M443.85,115.74c-.28-4.67.49-8,2.3-10.08A4.75,4.75,0,0,1,449.2,104l0,.8,0-.4,0,.4c-.21,0-5.22.45-4.58,10.92Z"/><path class="cls-3" d="M461.74,115.66l-.81,0c.64-10.47-4.36-10.9-4.58-10.92l0-.8a4.78,4.78,0,0,1,3.05,1.7C461.25,107.61,462,111,461.74,115.66Z"/><rect class="cls-19" x="459.33" y="149.5" width="5.6" height="2.27"/><rect class="cls-19" x="441.73" y="149.5" width="5.59" height="2.27"/><path class="cls-20" d="M459.7,125.56a2.42,2.42,0,0,1-1.85-.72,3,3,0,0,1-.66-2v-3.35a3.92,3.92,0,1,1,7.81,0v3.68a2.32,2.32,0,0,1-2.36,2.36v-.77a1.58,1.58,0,0,0,1.59-1.6v-3.67a3.14,3.14,0,1,0-6.26,0v3.38a2.16,2.16,0,0,0,.45,1.46,1.68,1.68,0,0,0,1.28.47Z"/><path class="cls-3" d="M463.59,125.17a.65.65,0,0,1-.65.65h-.32a.66.66,0,0,1-.66-.65h0a.66.66,0,0,1,.66-.66h.32a.65.65,0,0,1,.65.66Z"/><path class="cls-3" d="M460.35,125.17a.66.66,0,0,1-.66.65h-.31a.65.65,0,0,1-.66-.65h0a.65.65,0,0,1,.66-.66h.31a.66.66,0,0,1,.66.66Z"/><path class="cls-20" d="M446.29,116.6a2,2,0,1,1-2-2A2,2,0,0,1,446.29,116.6Z"/><path class="cls-3" d="M445.33,116.6a1.08,1.08,0,1,1-1.07-1.08A1.07,1.07,0,0,1,445.33,116.6Z"/><path class="cls-18" d="M503.79,217.59s-.66.85-.66,3.64c0,1.29,1.66,1.58,3.17,1.58,2,0,1.46,5.11,7.56,5.11,3.45,0,3.33-2.92,1.67-4.47-3.24-3-4.61-2.75-6.72-5.86Z"/><path class="cls-18" d="M493.92,217.59s-.65.85-.65,3.64c0,1.29,1.66,1.58,3.17,1.58,2,0,1.45,5.11,7.56,5.11,3.45,0,3.32-2.92,1.67-4.47-3.25-3-4.61-2.75-6.72-5.86Z"/><path class="cls-15" d="M521.85,166.39h0l.13-.2c.6-.85,1.06-1.52,1-2.1s-.1-.77-.17-1.28-.81-1.58-1.16-1.53-.76,1.28-.91,1.53a.56.56,0,0,1-.1.15c.47,0,1.33.37,1,2.17C521.6,165.45,521.11,166,521.85,166.39Z"/><path class="cls-1" d="M523.12,158.34a20.51,20.51,0,0,1,1.32,5,3.47,3.47,0,0,1-1.86,3.7c-.16.07-.64.09-.74,0s-.16-.38.14-.8a3.41,3.41,0,0,0,.92-2.1c-.06-.45-.1-.77-.17-1.27s-.75-1.59-1.1-1.54-.76,1.28-.91,1.53c-.47.8-1.44.75-1.05-.12a5.77,5.77,0,0,0,.35-3.91Z"/><path class="cls-2" d="M514.37,161.46c-.06-3-.59-31.69-1.37-41.81-.39-5.11.63-11.71-9.48-12.79,0,0-1.37-.07-2.84-.1a22,22,0,0,0-3.14.1c-3.37.57-9.58,2.57-9.58,9.72,0,10.46-.1,41.23,0,44.88Z"/><path class="cls-1" d="M495.87,86.12c4.23-6.62,15.29-3.56,14.59,5.69v0l0,.3c0,.07,0,.14,0,.21a29,29,0,0,0-.08,3.51,5.92,5.92,0,0,0,.33,1.49c.29.87-.54.86-.72.82L509,97.9l-.1.35a9.18,9.18,0,0,1-.78,1.93c-1.19,2.09-2.89,2.23-4.64,2.13v4.55l-2.77,3.1-3.21-3.1.92-4.84s-1.53-2.08-2.08-2.62c-.95-.94-1.16-2.26-1.67-4.2C493.71,91.36,494.19,88.74,495.87,86.12Z"/><path class="cls-3" d="M491.34,87.35c.06-1,.9-1.9,3-2.87,2.37-1.09,1.62-2.42,3.35-3.35a4.55,4.55,0,0,1,4.11-.2c.77.37,1.09.42,3.13.1a2.78,2.78,0,0,1,3.19,2.25c.24,1,.26,1.81,2.19,2.51,2.17.8,1.18,5.43-.95,5.4-1.55,0-1.81-2.4-3.54-1.56S504.22,93,502,93.5c-.52.11-1.34-.28-1.63-1.38s-2.18-.23-2.27,1.06c-.06.76,0,3.12,1.79,2.58,1-.32,2.15.58.59,1.73-.81.6-.41,2.15-1,2.81h0a1,1,0,0,1-.28.2c-2.12,1-4.87-1.75-5.35-2.49s-1.62-1-2.16-2.52c-.4-1.12-.16-2.14.18-3.86S491.23,88.92,491.34,87.35Z"/><polyline class="cls-18" points="512.15 155.6 512.22 152.96 491.64 152.96 491.75 155.6"/><rect class="cls-5" x="499.14" y="152.98" width="5.24" height="2.62"/><path class="cls-7" d="M489.46,110.93c-6.66,4.9-18,22.94-18,22.94l7.07,3.88s5.67-6.94,9.39-10.79Z"/><path class="cls-5" d="M497.54,106.82s-1.4.75-1.4,3.43a3.49,3.49,0,0,1,4.61-.29Z"/><path class="cls-5" d="M503.52,106.79s1.83.59,1.83,3.27c0,0-1.83-1.88-4.6-.1Z"/><path class="cls-7" d="M510.1,108.74s11,3.57,14.14,27.05l-7.3.26a83.92,83.92,0,0,1-2.57-10.65C512.5,114,510.1,108.74,510.1,108.74Z"/><polygon class="cls-7" points="519.35 159.23 524.24 158.53 524.23 135.52 516.88 135.66 519.35 159.23"/><path class="cls-3" d="M488.56,155.53s.89,25.71,1.42,34.26c.58,9.66,4,27.94,4,27.94a7.07,7.07,0,0,0,2.52.3,11.69,11.69,0,0,0,2.52-.18l2.8-48.23,2,48.31a18.28,18.28,0,0,0,2.43.1,7.17,7.17,0,0,0,2.53-.3l4-27.94.93-34.26Z"/><path class="cls-7" d="M487.91,116.69c0,3.85.12,47.28.12,47.28s8.1.27,8.73-3.72c2.19-13.74.78-53.43.78-53.43S487.91,106.86,487.91,116.69Z"/><path class="cls-7" d="M509,108.09c-1.63-.86-5.52-1.27-5.52-1.27s-.93,44.19,6.59,55.83c2.12,3.28,6.36,1.18,6.36,1.18-.54-16.62-.55-26.45-3.47-50C512.81,112.07,512.43,109.91,509,108.09Z"/><path class="cls-7" d="M492.88,161.13s-12.72-20.59-14.32-23.38c-2.84-5-5.38-4.37-7.07-3.88,0,0-2.12,2-.31,6.22,1.3,3,18.63,23.88,18.63,23.88Z"/><path class="cls-1" d="M492.51,161.46a5.74,5.74,0,0,1,1.92,1.42l-2.81,2.28a3,3,0,0,1-1.67-1.33Z"/><polygon class="cls-18" points="496.01 163.09 490.95 167.77 489.6 166.31 494.66 161.62 496.01 163.09"/><polygon class="cls-18" points="511.65 167.15 506.88 162.17 508.32 160.8 513.09 165.77 511.65 167.15"/><path class="cls-1" d="M586.67,124.42l-5.45.75,1.6,14.22a3.21,3.21,0,0,0,3.34,2.6,2.71,2.71,0,0,0,2.3-3.06Z"/><path class="cls-1" d="M582.83,139.14a2.82,2.82,0,0,1,3-2.66h0a2.83,2.83,0,0,1,2.66,3l-2.31,15.21a1.19,1.19,0,0,1-2.37-.16Z"/><path class="cls-1" d="M586.17,154.67s2.25,3-1.09,7.07c-.87,1-2.07.57-.93-2.23.77-1.89.61-3.17-.44-2.37-.42.32-.46.59-.86.55-1-.1.95-3.18.95-3.18Z"/><polygon class="cls-1" points="576.38 108.45 572.81 108.45 569.36 108.45 569.36 99.66 576.38 99.66 576.38 108.45"/><path class="cls-1" d="M569.36,104.08a8.19,8.19,0,0,0,7,0V99.66h-7Z"/><path class="cls-1" d="M582.78,94.2c-.31.94-1.13,1.5-1.82,1.27a1.59,1.59,0,0,1-.69-2.11c.31-.94,1.13-1.5,1.82-1.27A1.6,1.6,0,0,1,582.78,94.2Z"/><path class="cls-1" d="M562.79,94.2c.31.94,1.13,1.5,1.82,1.27a1.61,1.61,0,0,0,.69-2.11c-.31-.94-1.13-1.5-1.82-1.27A1.59,1.59,0,0,0,562.79,94.2Z"/><path class="cls-1" d="M581.35,95.08a8.48,8.48,0,0,1-8.48,8.47h0a8.47,8.47,0,0,1-8.47-8.47V90.65a8.48,8.48,0,0,1,8.47-8.48h0a8.48,8.48,0,0,1,8.48,8.48Z"/><path class="cls-7" d="M566.54,150.22l13.74.34.78-25.13,6-.92c-.54-6-2.54-9.74-4.66-12.14a12.4,12.4,0,0,0-6-3.92h-7s-8.13,2-10.65,15.67l6.53.95Z"/><path class="cls-2" d="M581.73,150.22H564.2l-1.8,21v48.18a2.46,2.46,0,0,0,1.92.94,2,2,0,0,0,1.92-.94s3.42-18.77,4.11-25c.64-5.78,2.31-23.14,2.31-23.14S574.34,191,575,197.58c.58,5.53,4.18,21.84,4.18,21.84a2,2,0,0,0,1.92.94,2.43,2.43,0,0,0,1.92-.94V171.24Z"/><path class="cls-5" d="M579.89,110.13a10.22,10.22,0,0,0-2.35-1.29L577,120.56h-7.8l-.77-11.75a10.07,10.07,0,0,0-2.21,1.33c0,.13-2.11,17.83-1.87,20.79.25,3.22,1.83,7.85-.88,16.25-3.82,11.87-4.72,48.88-4.72,48.88h29.13s-1.11-37.43-5-49.38c-2.06-6.36-1.25-11.78-1.18-16C581.81,121.59,579.88,110.29,579.89,110.13Z"/><path class="cls-3" d="M567.2,217.8c-.21-.91.16-3.1.4-6h-5.2s.23,5-.41,6.51-2.57,4.36-3,6.68a2.48,2.48,0,0,0,4.27,2.15c.24-.28,2.92-5,3.68-6.68A3.36,3.36,0,0,0,567.2,217.8Z"/><path class="cls-3" d="M588.49,223.47c-.47-2.6-4.13-3.61-5-5.17-.52-1-.48-6.51-.48-6.51h-5.46c.3,3.1.79,8.19,1,9.7.17,1.3,6.58,3.83,6.93,4C587.87,226.45,588.74,224.86,588.49,223.47Z"/><path class="cls-1" d="M565.19,125l-6.07-.89-2.73,14.38a3.23,3.23,0,0,0,2,3.76,2.71,2.71,0,0,0,3.37-1.83Z"/><path class="cls-1" d="M562,138.1a3,3,0,0,0-4.09-1.3h0a3,3,0,0,0-1.3,4.09l7,8.89c.78,1.49,4.28-1.12,3.5-2.61Z"/><rect class="cls-3" x="563.23" y="148.23" width="5.62" height="2.09" transform="translate(35.67 397.04) rotate(-39.81)"/><path class="cls-3" d="M568.51,128.88v6.7a.68.68,0,0,0,.67.69h8.4a.68.68,0,0,0,.67-.69v-6.7Z"/><rect class="cls-3" x="568.02" y="128.16" width="10.72" height="1.76"/><path class="cls-3" d="M584.92,125.82c-1.21-1.43-2.57-6.29-.49-10.89s1.3-11,.09-15.15a62.93,62.93,0,0,1-1.71-10.41v0c0-2.55-.91-5.32-4.57-7.33-8.15-4.47-11.94,1.24-11.94,1.24-1.91-.1-2.76,1.62-3.21,3.91v0c-.11.55-.2,1.13-.28,1.74a7.75,7.75,0,0,0,.16,1.92,23.14,23.14,0,0,1-1.67,6.47c-2.82,6.66-.56,11.53,2.26,14.51,4.55,4.81,1.25,9-.77,12.37s-.54,8.35,2.73,9.56,7.87-.74,6.74-4.67c-1-3.57-1.2-6.13-.15-9.28s-.07-9.72-2.71-11.43l0-5.56s-3.69-1.29-4.83-6.41a4,4,0,0,1,1.87-3.52A2.71,2.71,0,0,0,568,89.87c.5.63,1.35,1,2.79.46,3-1.08,4,2.94,7.9,2.94,1.24,0,2.44,2.44,2.44,2.44-1.19,5.77-4.87,7.15-4.87,7.15v5.56c1.45,1.15,1.48,5.4,1,8.93-1,6.65,1.61,13.39,3.91,14S587.58,129,584.92,125.82Z"/><path class="cls-1" d="M569.37,108.29c0,1.07,1.57,2,3.46,2s3.42-1,3.46-2Z"/><path class="cls-6" d="M655.16,76.18a12.42,12.42,0,0,1,10.08,8.63c2.76,8,4.86,8.45,8.29,8.7s8.61.58,10,4.65,4.19,6.66,9.21,6.15,9.2,6.1,5.18,12.71-8.11,1.5-13.63,5.85-6,9.48-12,9c-7.7-.67-8.88-4.51-14.9-3.93s-9.1-3.84-7.59-12,3-10.3-.39-14.31-10.78-13.52-6-20.31Z"/><path class="cls-1" d="M647.68,217.51a1.94,1.94,0,0,1-1.91.93,2.41,2.41,0,0,1-1.91-.93v-48h10.21s-1.66,17.29-2.3,23C651.08,198.82,647.68,217.51,647.68,217.51Z"/><path class="cls-1" d="M660.59,217.51a1.94,1.94,0,0,0,1.91.93,2.41,2.41,0,0,0,1.91-.93v-48H654.07s1.68,19.68,2.36,26.23C657,201.26,660.59,217.51,660.59,217.51Z"/><path class="cls-7" d="M665.54,143.13c-1.33-4.07-6.13-10.93-6.13-10.93H645.92s-3.2,4.11-5.36,12.18c-1.8,6.73-.86,18-.84,26.11,0,2.54,4.94,6.07,14.84,4.73,3.89-.53,9.52-1.19,11.43-3.56C669.44,167.4,667.5,149.16,665.54,143.13Z"/><path class="cls-1" d="M656.78,104.31s-.19,8.51-5.55,7-1.44-7-1.44-7L651,95.56h4.89Z"/><path class="cls-1" d="M653.29,100.75a8.24,8.24,0,0,0,3.07-.61l-.48-4.58H651l-.63,4.63A8.16,8.16,0,0,0,653.29,100.75Z"/><path class="cls-1" d="M663.15,90.13c-.31.93-1.12,1.5-1.82,1.26a1.6,1.6,0,0,1-.68-2.1c.31-.93,1.13-1.5,1.82-1.26A1.59,1.59,0,0,1,663.15,90.13Z"/><path class="cls-1" d="M643.25,90.13c.31.93,1.12,1.5,1.81,1.26a1.59,1.59,0,0,0,.68-2.1c-.31-.93-1.12-1.5-1.81-1.26A1.58,1.58,0,0,0,643.25,90.13Z"/><path class="cls-1" d="M661.73,91a8.44,8.44,0,0,1-8.44,8.44h0A8.44,8.44,0,0,1,644.85,91V86.59a8.44,8.44,0,0,1,8.44-8.44h0a8.44,8.44,0,0,1,8.44,8.44Z"/><path class="cls-1" d="M645.87,104.31,630.62,91.94l-.13-.1-11.68-14.2a1.41,1.41,0,0,0-2.34,1.56l10.32,17.27a3.12,3.12,0,0,0,.74,1.14l16.66,15.87s.87-1.76,2.23-4.19C647.42,107.49,645.87,104.31,645.87,104.31Z"/><path class="cls-1" d="M616.47,79.2s-4.27-1.21-4.06-7.42c.06-1.62,1.53-2,2.47,1.41.65,2.34,1.71,3.42,2.13,1.92.16-.6,0-.89.4-1.14,1-.6,1.4,3.67,1.4,3.67Z"/><path class="cls-6" d="M644.89,92.09a4,4,0,0,1,1.91-3.48,2.76,2.76,0,0,0,1.59-3.09c.5.64,1.36,1,2.82.47,3.09-1.1,4,3,8,3,1.26,0,2.47,2.48,2.47,2.48,0,.23-.1.44-.16.65,0,0,1.35-.58,1.84-7.08.15-2-.93-5.36-4.65-7.4-8.25-4.52-12.09,1.26-12.09,1.26-1.94-.1-4.68,2.8-3.72,7.95A17.91,17.91,0,0,0,644.89,92.09Z"/><path class="cls-7" d="M656.78,104.31s6.05,1.84,7.63,3c0,0-2.33,3.47-.47,9l-2,7.52c-.95,3.51-2.49,8.39-2.49,8.39H645.92s-3.22-5.92-3.22-10.07c0-2.23.42-9.51.42-9.51a15.06,15.06,0,0,0,2.75-8.31h3.92s-1.54,4.93,2.81,5.73C656,110.67,656.78,104.31,656.78,104.31Z"/><path class="cls-3" d="M646,132c2.28.26,4.5.56,6.72.64a24.54,24.54,0,0,0,6.64-.54.15.15,0,0,1,.12.26,9,9,0,0,1-3.26,1.44,14.7,14.7,0,0,1-3.55.35,17.86,17.86,0,0,1-3.51-.47,13.74,13.74,0,0,1-3.31-1.22.24.24,0,0,1-.1-.34A.27.27,0,0,1,646,132Z"/><path class="cls-3" d="M652.5,185.53a13.81,13.81,0,0,0-4.32-.63c-3.26,0-4.32.63-4.32.63v27.8a15.2,15.2,0,0,1-.49,4.25c-.6,1.47-3,5.25-3.44,7.5a2.4,2.4,0,0,0,4.13,2.08c.23-.27,3.32-5.91,4.06-7.5a3.26,3.26,0,0,0,.29-2.57c-.2-.87.78-6.41.78-6.41,1.06-6,2.15-14.2,2.58-18.11C652,190.94,652.22,188.37,652.5,185.53Z"/><path class="cls-3" d="M671,224.66c-.45-2.51-5-4-5.81-5.53-.51-1-.81-6.22-.81-6.22V185.53s-.68-.63-4.45-.63a13.57,13.57,0,0,0-4.49.63c.36,4.08.72,7.95,1,10.23.34,3.25,1.5,10.07,2.45,15.28.5,2.8,1.5,9.78,1.7,11.24.17,1.25,7.23,4.16,7.57,4.31C670.43,227.54,671.27,226,671,224.66Z"/><path class="cls-3" d="M660.85,105.68l-1.48-.52a31.69,31.69,0,0,1-7.45,22.92l2.57.62c5.72-7.36,6.38-16.2,6.53-18.78A20.11,20.11,0,0,0,660.85,105.68Z"/><path class="cls-1" d="M673,128.53c1.26,1.29,2.76.63,3.69-.15,1.38-1.16,1.81-2.89.62-4.25-3.64-4.19-12.88-16.81-12.88-16.81-.32-.5-2.7,4.71-.81,8.28A70.26,70.26,0,0,0,673,128.53Z"/><path class="cls-1" d="M687.49,119.09c1.49-1-.35-3.61-1.85-2.6l-12.19,7.36c-1.5,1-2.24,2.38-1.23,3.88h0a3.17,3.17,0,0,0,4.45.88Z"/><path class="cls-1" d="M687.41,118.94s4.43.21,6.21-5.75c.46-1.55-.81-2.41-2.8.56-1.35,2-2.7,2.7-2.62,1.14,0-.62.29-.85,0-1.2-.75-.89-2.5,3-2.5,3Z"/><path class="cls-4" d="M649.48,147c2.09-1.57,4.1-1.44,6.41-2.93,4.58-2.94,5.69-8.8,2.59-13.64s-8.9-6.27-13.48-3.33c-2.21,1.42-3.15,3.29-5.39,4.43-3.57,1.8-8,.58-11.49,2.83-5.64,3.62-6,10.67-2.19,16.63s9.86,8.91,15.5,5.28C644.82,154.13,646.38,149.35,649.48,147Z"/><rect class="cls-4" x="639.91" y="124.06" width="48.05" height="5.15" transform="translate(36.87 378.91) rotate(-32.71)"/><path class="cls-4" d="M685.58,116.83a1.05,1.05,0,0,1-1.41-.43l-2.49-3.88a1.06,1.06,0,0,1,.2-1.46l6.12-3.92a1,1,0,0,1,1.41.42l2.49,3.88a1.05,1.05,0,0,1-.2,1.46Z"/><rect class="cls-21" x="634.06" y="141.03" width="1.94" height="9.71" transform="translate(21.74 365.94) rotate(-32.68)"/><path class="cls-22" d="M647.25,142.89a4.66,4.66,0,1,1,1.4-6.45A4.67,4.67,0,0,1,647.25,142.89Z"/><path class="cls-5" d="M684.8,112.79a.81.81,0,0,1-1.08-.34h0a.79.79,0,0,1,.15-1.11l3.71-2.39a.8.8,0,0,1,1.08.33h0a.8.8,0,0,1-.14,1.12Z"/><path class="cls-5" d="M686.09,114.8a.78.78,0,0,1-1.05-.29h0a.77.77,0,0,1,.17-1.08l3.72-2.38a.77.77,0,0,1,1.05.29h0a.76.76,0,0,1-.18,1.07Z"/><path class="cls-21" d="M687.22,110.79a.16.16,0,0,1-.22-.06l-1.55-2.4a.16.16,0,0,1,0-.23l.75-.48a.16.16,0,0,1,.22.06l1.54,2.4a.17.17,0,0,1,0,.23Z"/><path class="cls-6" d="M685.43,108.45a.14.14,0,0,1-.2,0l-.57-.89a.15.15,0,0,1,.05-.2l1.22-.78a.14.14,0,0,1,.2,0l.57.88a.14.14,0,0,1,0,.2Z"/><path class="cls-21" d="M685,111.83a.16.16,0,0,1-.22,0l-1.46-2.28a.16.16,0,0,1,0-.22l.76-.48a.15.15,0,0,1,.21,0l1.47,2.28a.17.17,0,0,1,0,.22Z"/><path class="cls-6" d="M683.39,109.76a.14.14,0,0,1-.2,0l-.57-.89a.15.15,0,0,1,0-.2l1.23-.78a.14.14,0,0,1,.2,0l.57.88a.15.15,0,0,1,0,.2Z"/><path class="cls-21" d="M688,112a.18.18,0,0,0,0,.24l1.63,2.54a.17.17,0,0,0,.23.07l.75-.49a.17.17,0,0,0,0-.23L689,111.54a.17.17,0,0,0-.23-.07Z"/><path class="cls-6" d="M689.64,114.13h1.46a.14.14,0,0,1,.14.14v1.05a.15.15,0,0,1-.15.15h-1.46a.14.14,0,0,1-.14-.14v-1.05A.14.14,0,0,1,689.64,114.13Z" transform="matrix(0.84, -0.54, 0.54, 0.84, 47.19, 390.69)"/><rect class="cls-21" x="686.77" y="113.18" width="1.21" height="3.02" rx="0.16" ry="0.16" transform="translate(46.63 388.7) rotate(-32.63)"/><rect class="cls-6" x="687.49" y="115.5" width="1.75" height="1.34" rx="0.15" ry="0.15" transform="translate(46.65 391.02) rotate(-32.76)"/><rect class="cls-5" x="629.27" y="127.17" width="60.21" height="0.36" transform="translate(34.34 372.94) rotate(-32.38)"/><polygon class="cls-5" points="634.86 144.79 634.66 144.49 687.32 110.2 687.51 110.5 634.86 144.79"/><rect class="cls-5" x="631.36" y="130.44" width="60.12" height="0.36" transform="translate(34.35 378.25) rotate(-32.72)"/><rect class="cls-5" x="630.59" y="128.76" width="62.76" height="0.35" transform="translate(36.22 380.46) rotate(-32.92)"/><path class="cls-18" d="M416.35,215.16s-.73,1-.73,4.12c0,1.45,1.87,1.78,3.58,1.78,2.26,0,1.64,5.78,8.54,5.78,3.9,0,3.77-3.3,1.89-5.05-3.67-3.42-5.21-3.12-7.59-6.63Z"/><path class="cls-18" d="M392.84,215.05c-.3.61-.54,2.06-.91,2.89-1,2.16-2.38,3.22-3.6,5.37-.71,1.25-.43,4.26,3,4.58a4.34,4.34,0,0,0,5-3.54c.5-3.23.36-5.54,1.15-8.59.3-1.2-1.18-1.71-2.4-1.68A2.31,2.31,0,0,0,392.84,215.05Z"/><path class="cls-3" d="M396.57,152.65s-4.32,21-5.46,32.9c-.65,6.78,1.22,30.13,1.22,30.13h5.38s2.21-19.52,3.89-26A247.67,247.67,0,0,1,410,163.4l6.19,52.06h6.05S425,194.86,425.53,188c.59-8,.82-35.38.82-35.38Z"/><path class="cls-1" d="M427,113.77s2.5,2.67,4.68,10.11a57.92,57.92,0,0,1,2,16.26l-5.64-.16s-1.38-9.29-2.4-14.84C424.13,116.49,427,113.77,427,113.77Z"/><polygon class="cls-1" points="428.79 160.74 431.87 160.74 433.77 140.14 428.06 139.65 428.79 160.74"/><path class="cls-15" d="M429.51,168.41h0a2,2,0,0,1,.15-.18c.7-.74,1.25-1.33,1.25-1.91s0-.77,0-1.26-.56-1.66-.91-1.66-.92,1.14-1.1,1.36l-.12.14c.45.11,1.25.54.7,2.26C429.4,167.46,428.83,168,429.51,168.41Z"/><path class="cls-1" d="M431.87,160.74a20.6,20.6,0,0,1,.59,5.06,3.41,3.41,0,0,1-2.33,3.34c-.17.05-.64,0-.72-.15s-.1-.39.25-.76c.7-.74,1.19-1.34,1.19-1.91s0-.77,0-1.27-.5-1.65-.85-1.65-.92,1.14-1.1,1.36c-.57.71-1.52.54-1-.27a5.62,5.62,0,0,0,.9-3.75Z"/><path class="cls-7" d="M425.18,125.25l6.54-1.37c-.59-7.54-2.6-12-8.12-15.38-2-1.24-8.64-1.86-8.64-1.86h-6.59a16.12,16.12,0,0,0-7.32,1.75c-4,2.26-6.85,7-8.45,15.22l5.88,1.48s-2.3,18.64-2.94,27.07c-.16,2,10.45,2.56,16.56,2.45,6.68-.11,14.27-.46,15-.92.47-.28-.24-7.84-.35-9.59-.57-9.18-.49-8.33-1.6-18.85Z"/><path class="cls-1" d="M419.89,95.61a8.22,8.22,0,0,1-8.23,8.22h0a8.21,8.21,0,0,1-8.22-8.22V91.33a8.22,8.22,0,0,1,8.22-8.22h0a8.23,8.23,0,0,1,8.23,8.22Z"/><path class="cls-1" d="M392.7,123.64l5.19,1.27-2.54,17.83c-.22,1.57-1.27,3-2.83,2.78a2.86,2.86,0,0,1-2.43-3.23Z"/><path class="cls-1" d="M391.65,140.37a3.13,3.13,0,0,0-1.19,4.25h0a3.13,3.13,0,0,0,4.26,1.2l14.7-9.64c1.5-.85-.2-3.74-1.7-2.9Z"/><path class="cls-1" d="M421.62,94.29c-.31.9-1.1,1.46-1.77,1.23a1.56,1.56,0,0,1-.67-2c.31-.91,1.1-1.46,1.77-1.23A1.56,1.56,0,0,1,421.62,94.29Z"/><path class="cls-1" d="M401.89,94.29c.3.9,1.09,1.46,1.77,1.23a1.56,1.56,0,0,0,.66-2c-.3-.91-1.09-1.46-1.77-1.23A1.55,1.55,0,0,0,401.89,94.29Z"/><path class="cls-3" d="M417,82.58c-7.33-3.8-11.77,1.22-11.77,1.22-2.35-.11-2.53,2.56-2.9,5.63a27.44,27.44,0,0,0,.47,5.32,4.34,4.34,0,0,0,.74,2v0c.46.35.61.14.91-.2.84-1,.79-2.23,1.29-3.88a12.93,12.93,0,0,0,.42-2c.18-1.26,2.07-2.22,3.45-2.24a18.39,18.39,0,0,1,4.14.48c5.3,1.73,5.12,7,6.13,7.12.61.06.81-1,1.12-2.43C421.67,90.54,422,85.19,417,82.58Z"/><path class="cls-1" d="M415.28,106.67s0,2.93-3.61,2.93-3.63-2.93-3.63-2.93v-5.6h7.24Z"/><path class="cls-7" d="M421.38,89.63c.36-6-3-8.73-9.53-8.73-8,0-9.77,3.7-9.73,8.85Z"/><path class="cls-23" d="M402.12,89.75l2.15,4a22.75,22.75,0,0,1,14.79,0l2.32-4.09s-3-.15-9.62-.15C405.57,89.48,402.12,89.75,402.12,89.75Z"/><path class="cls-24" d="M419,93.91a23.17,23.17,0,0,0-14.63,0l-.37-.72a24.36,24.36,0,0,1,15.39,0Z"/><path class="cls-15" d="M415.34,129.72h0q0,.1-.09.24c-.31,1.07-.56,1.91-1.1,2.23s-.72.43-1.19.71-1.88.39-2.06.06.56-1.5.68-1.79a1.33,1.33,0,0,0,.05-.19c.35.37,1.2.88,2.52-.59C414.38,130.14,414.54,129.33,415.34,129.72Z"/><path class="cls-1" d="M409.42,136.18a22.86,22.86,0,0,0,5.09-2.24,3.74,3.74,0,0,0,1.86-4c-.05-.19-.35-.61-.54-.6s-.42.13-.58.66c-.31,1.07-.6,1.86-1.14,2.18s-.71.43-1.19.71-1.84.44-2,.11.56-1.5.68-1.79c.34-.93-.34-1.72-.82-.81a6.22,6.22,0,0,1-3,2.92Z"/><path class="cls-1" d="M516.46,135.94c.1-.33,1.81-4.16,3.5-7.37h-8.83c-.56,1.44-1.11,2.93-1.65,4.49l-.25.68v.71a132.85,132.85,0,0,0,4.1,23.23l3.18-.06C515.51,143.5,515.82,138.13,516.46,135.94Z"/><path class="cls-18" d="M539.26,217.29a8.7,8.7,0,0,0-.42,3.47c0,1.22,1.58,1.5,3,1.5,1.9,0,2.69,5.66,8.51,5.66,3.29,0,3.93-2.29,2.35-3.77-3.1-2.89-6.36-5.2-8.47-6.86Z"/><path class="cls-18" d="M531.59,217.29s.63.8.63,3.47c0,1.22-1.59,1.5-3,1.5-1.9,0-2.69,5.66-8.5,5.66-3.29,0-3.93-2.29-2.35-3.77,3.09-2.89,6.35-5.2,8.46-6.86Z"/><path class="cls-3" d="M549.89,153.68h-28l4.66,63.81,5.13-.07L535.83,164,541,188.23h0l-1.81,29.19,5.23,0,8.3-29.16h0Z"/><path class="cls-5" d="M549.89,153.68V112c0-1.53-1.35-2.51-2.76-3.08l-7.69-3.08h-7.11a67.71,67.71,0,0,0-7.68,3.08c-1.32.76-2.92,1.79-2.92,2.51l.15,42.23Z"/><polygon class="cls-1" points="539.44 105.87 535.83 109.65 532.33 105.87 532.33 102.39 539.44 102.39 539.44 105.87"/><path class="cls-1" d="M543.75,98.3c0,1.52-3.88,6.15-7.86,6.15S528,100.12,528,98.3V92.48a7.87,7.87,0,0,1,7.87-7.87h0a7.86,7.86,0,0,1,7.86,7.87Z"/><path class="cls-1" d="M545.16,95.77c-.29.87-1,1.4-1.69,1.18a1.73,1.73,0,1,1,1.69-1.18Z"/><path class="cls-1" d="M526.61,95.77c.3.87,1.06,1.4,1.7,1.18a1.5,1.5,0,0,0,.64-2c-.3-.87-1.05-1.39-1.7-1.18A1.51,1.51,0,0,0,526.61,95.77Z"/><path class="cls-3" d="M528,95.38s.87-3,2.72-4.4l1.13-1.69s1.22-.32,4,.8,3.52,2.84,6.26,2.22a27,27,0,0,1,1.37,3.25,25.13,25.13,0,0,0,.8-3.9c.2-1.89.5-6.77-5.41-8.32-6.15-1.61-8.78,2.32-8.78,2.32s-.56-.63-2.11,1.78c-1.12,1.75-1.18,4.66,0,8.12"/><path class="cls-3" d="M543.8,95.88a6,6,0,0,0-1.26-2.76s.5,3.56-.84,5.29c-1.18,1.51-4.86,3.88-5.91,3.88s-4.73-2.37-5.91-3.88c-1.34-1.73-.82-5.73-.82-5.73a8.73,8.73,0,0,0-1.28,3.2,6.4,6.4,0,0,0,.6,4c1.09,1.64,4.76,4.14,4.76,4.14a4.14,4.14,0,0,0,5.3,0s3.73-2.29,4.83-3.94S543.8,95.88,543.8,95.88Z"/><path class="cls-3" d="M540.41,100.78l-.77-1.19a6.51,6.51,0,0,0-3.57-1.1c-2.47,0-4,.57-4.32.93a5.7,5.7,0,0,0-.92,1.3l-1.42-.74a7.88,7.88,0,0,1,1.21-1.69c.85-.85,3-1.4,5.45-1.4a7.87,7.87,0,0,1,4.65,1.52l.1.07.93,1.44Z"/><path class="cls-5" d="M519,130.79a43.8,43.8,0,0,1,2.86-5.58l.28-14.45c-3.89,2.86-7.73,7.93-11.38,17.81Z"/><path class="cls-15" d="M517.21,165h0a1.57,1.57,0,0,0-.19-.15c-.84-.61-1.5-1.1-1.6-1.67s-.16-.77-.25-1.26.24-1.77.59-1.84,1.13,1,1.36,1.17l.14.1c-.43.2-1.14.78-.27,2.39C517.14,164,517.8,164.38,517.21,165Z"/><path class="cls-1" d="M513.29,157.52a27.43,27.43,0,0,0,.48,5.39,3.48,3.48,0,0,0,3,2.9c.19,0,.64-.12.7-.29s0-.41-.4-.71c-.84-.61-1.44-1.11-1.55-1.69s-.16-.76-.25-1.26.19-1.75.54-1.82,1.13,1,1.36,1.17c.7.6,1.61.24,1-.47a5.75,5.75,0,0,1-1.6-3.58Z"/><path class="cls-1" d="M559.93,127.69l-8.37.88c1.64,3.15,3.25,6.76,3.35,7.07.64,2.2.94,7.56-.07,21.68l3.19.06a133,133,0,0,0,4.1-23.22v-.72l-.25-.68C561.39,131.31,560.45,129,559.93,127.69Z"/><path class="cls-5" d="M552.41,130.5a39.37,39.37,0,0,0-2.78-5.3L548.86,110c3.89,2.85,7.82,8.47,11.47,18.35Z"/><path class="cls-15" d="M554.16,164.66h0a1,1,0,0,1,.19-.15c.83-.6,1.49-1.09,1.6-1.67l.25-1.26c.09-.47-.25-1.76-.59-1.83s-1.14,1-1.36,1.16l-.15.11c.43.19,1.15.78.28,2.39C554.23,163.69,553.57,164.08,554.16,164.66Z"/><path class="cls-1" d="M558.07,157.22a26.88,26.88,0,0,1-.47,5.39,3.47,3.47,0,0,1-3,2.9c-.18,0-.63-.12-.69-.28s0-.42.4-.72c.83-.6,1.44-1.11,1.54-1.68s.16-.77.26-1.26-.2-1.75-.54-1.82-1.14,1-1.36,1.16c-.71.6-1.62.24-1-.46a5.77,5.77,0,0,0,1.6-3.58Z"/><path class="cls-3" d="M533.73,108a4.94,4.94,0,0,0,1,1.23,1.7,1.7,0,0,0,1.15.43,1.62,1.62,0,0,0,.64-.1,2.2,2.2,0,0,0,.61-.31,2.89,2.89,0,0,0,.57-.54,4,4,0,0,0,.23-.34l.11-.18,0-.09s0-.07.1-.08h0a.26.26,0,0,1,.19.07.1.1,0,0,1,0,.13l0,.11,0,.23c0,.15-.09.3-.14.45a3.76,3.76,0,0,1-.46.86,2.4,2.4,0,0,1-.8.71,2.33,2.33,0,0,1-.52.2,2.87,2.87,0,0,1-.53.07,2.46,2.46,0,0,1-1.11-.23,2.38,2.38,0,0,1-.84-.69,2.85,2.85,0,0,1-.6-1.85.19.19,0,0,1,.2-.19.17.17,0,0,1,.16.09Z"/><polygon class="cls-18" points="535.3 109.55 533.63 111.39 534.89 112.79 536.89 112.79 538.15 111.39 536.48 109.55 535.3 109.55"/><polygon class="cls-3" points="536.89 112.79 534.89 112.79 532.77 135.97 535.81 142.02 539.2 136.14 536.89 112.79"/><path class="cls-18" d="M535.89,109.59l3.55-3.79,1.79.77a9.69,9.69,0,0,1,2.46,4.93L541.08,110Z"/><path class="cls-18" d="M535.81,109.59l-3.48-3.75-1.9.69a10,10,0,0,0-2.43,5l2.61-1.54Z"/><polyline class="cls-18" points="549.9 153.68 549.89 151.04 521.88 151.04 521.88 153.68"/><rect class="cls-5" x="533.71" y="151.06" width="3.89" height="2.62"/><path class="cls-4" d="M528.52,125.64c-2.29,0-3.28-5-3.28-5a1.22,1.22,0,0,0,1.14-.41,2.08,2.08,0,0,0,.47-1.22h3.59a2.14,2.14,0,0,0,.31,1.14,1.29,1.29,0,0,0,1.11.56S530.9,125.64,528.52,125.64Z"/><path class="cls-3" d="M540.12,119.44v4.94a1.63,1.63,0,0,0,1.62,1.62h2.87a1.63,1.63,0,0,0,1.62-1.62v-4.94Z"/><rect class="cls-18" x="539.78" y="118.97" width="6.79" height="1.79"/><path class="cls-5" d="M543.09,159.53a3,3,0,1,1,3-3A3,3,0,0,1,543.09,159.53Zm0-5.05a2.06,2.06,0,1,0,2.06,2.06A2.05,2.05,0,0,0,543.09,154.48Z"/><path class="cls-5" d="M545.68,159.53a3,3,0,1,1,3-3A3,3,0,0,1,545.68,159.53Zm0-5.05a2.06,2.06,0,1,0,2.05,2.06A2.06,2.06,0,0,0,545.68,154.48Z"/><rect class="cls-3" x="542.04" y="150.57" width="4.69" height="3.61"/><polygon class="cls-5" points="528.72 82.73 525.81 87.4 527.16 89.78 544.39 89.78 545.28 87.77 542.89 82.84 535.85 79.94 528.72 82.73"/><path class="cls-18" d="M544.39,89.78H527.16l.53-2s1.52-1.15,7.89-1.15c6.17,0,7.95,1.15,7.95,1.15Z"/><path class="cls-25" d="M527.16,89.65v.14c0,2.18,3.85,4,8.6,4s8.6-1.78,8.6-4a.66.66,0,0,0,0-.14Z"/><path class="cls-4" d="M535.79,85.78c-1.39,0-2-3-2-3a.75.75,0,0,0,.68-.25,1.26,1.26,0,0,0,.28-.73h2.16a1.3,1.3,0,0,0,.19.68.76.76,0,0,0,.67.33S537.22,85.78,535.79,85.78Z"/><path class="cls-4" d="M544.56,89.65c0,.37-.17.66-.39.66s-.38-.29-.38-.66.17-.65.38-.65S544.56,89.29,544.56,89.65Z"/><path class="cls-4" d="M527.78,89.65c0,.37-.17.66-.38.66S527,90,527,89.65s.17-.65.38-.65S527.78,89.29,527.78,89.65Z"/><rect class="cls-18" x="523.85" y="149.46" width="3.52" height="9.6"/><rect class="cls-3" x="523.02" y="150.51" width="5.19" height="3.61"/><path class="cls-3" d="M617.91,102s3.84-.8,5-6.63a27.54,27.54,0,0,0,.65-5.16c.07-5.65-2.79-9.52-9.73-9.52-3,0-7.35,1.77-10.07,6.93-3.3,6.24-.75,7.85-3.56,10.74s-3,5-.9,7.77,3.46,5,2.48,7.18-1.33,8.34,4.49,5.94,11.69-14.44,11.69-14.44Z"/><path class="cls-4" d="M604.9,108.08s-4.94,1.44-7.49,13.8c-1,4.79-1.51,3.87-1.51,11h5l3.55-12.72C604.52,112.27,604.9,108.08,604.9,108.08Z"/><path class="cls-4" d="M624.79,107.9s4.94,1.44,7.49,13.79c1,4.8,1.51,3.88,1.51,11h-5l-4-11.51C624.75,113.3,624.79,107.9,624.79,107.9Z"/><path class="cls-1" d="M633,154.34s2.62,3.53-1.29,8.28c-1,1.23-2.42.67-1.08-2.61.9-2.21.71-3.71-.51-2.78-.5.38-.54.7-1,.65-1.14-.12,1.11-3.73,1.11-3.73Z"/><polygon class="cls-4" points="629.15 154.46 633.85 154.46 633.79 132.65 628.76 132.65 629.15 154.46"/><polygon class="cls-1" points="618.21 105.28 614.81 108.52 611.29 105.28 611.29 99.49 618.21 99.49 618.21 105.28"/><path class="cls-1" d="M622.06,95.49c-.59,2.58-4.2,7.46-7.45,7.46-2.79,0-7.29-4.06-7.49-6.73,0,0-.69-4.78-.79-6.39-.3-4.75,4.14-8.61,8.28-8.61h0c4.13,0,8.73,3.87,8.39,8.61A43.39,43.39,0,0,1,622.06,95.49Z"/><path class="cls-3" d="M608.42,216.32a3.94,3.94,0,0,1,0,1.31,53.62,53.62,0,0,1-3.5,7.79c-.75,1.23-3.58,3-5,2.4-1.16-.48-1.45-2.57-.64-4.28s5.6-7.22,5.6-7.22Z"/><path class="cls-3" d="M621,216.31a3.72,3.72,0,0,0,0,1.32,54.56,54.56,0,0,0,3.49,7.79c.75,1.23,3.58,3,5,2.39,1.16-.48,1.44-2.57.63-4.28s-5.34-7.22-5.34-7.22Z"/><path class="cls-4" d="M623.19,149.11l1.65-41.22L618,105h-6.62l-7.21,3.08a3.22,3.22,0,0,0-1,1.94c-.21,1,3.14,39,3.14,39C606.32,149.86,623.77,149.88,623.19,149.11Z"/><path class="cls-1" d="M623.18,93.54c-.34,1-1.09,1.68-1.69,1.48s-.79-1.19-.45-2.2,1.09-1.68,1.69-1.48S623.52,92.52,623.18,93.54Z"/><path class="cls-1" d="M606.15,93.54c.34,1,1.1,1.68,1.69,1.48s.8-1.19.46-2.2-1.1-1.68-1.7-1.48S605.81,92.52,606.15,93.54Z"/><path class="cls-7" d="M603.78,170.17l.38,46.82h4.4c.49-2.7,3.2-18.62,3.82-24.27s2.34-28.08,2.34-28.08,1.59,24.77,2.26,31.23c.52,4.94,3.29,18.63,3.83,21.12h4.55l.64-47.12s.73-21-1.61-27.86c-1.59-4.67.36-13.8.89-18.27.11-.94-.54-2.77-.51-4.12.12-5.16.48-11.53.48-11.53l-3.59-1.54-.6,10.78H608.45l-1.19-10.54-3,1.3a3.22,3.22,0,0,0-1,1.94c-.09.44.14,2.91.65,9.59.09,1.25-.62,3.36-.43,4.86.62,5.07,2.61,13.42,1.46,17.73C602,153,603.78,170.17,603.78,170.17Z"/><path class="cls-26" d="M604.18,215l0,2h4.4c.08-.4.2-1.11.36-2Z"/><path class="cls-26" d="M620.38,215c.19.91.34,1.62.43,2h4.55l0-2Z"/><path class="cls-1" d="M611.29,104.89c0,1,1.3,2,3.47,2s3.41-1,3.45-2Z"/><path class="cls-3" d="M623.09,91.62a1.83,1.83,0,0,0-1.8,2s0-4.13-1.5-6.58a8.18,8.18,0,0,1-6,3.22c-3.86.13-5.63.62-6.65,3.33a10,10,0,0,1-.9-7.71c1.38-4,6.3-5.63,9-5.53S624.54,83.14,623.09,91.62Z"/><path class="cls-27" d="M609.12,123.21V131a.79.79,0,0,0,.78.8h9.72a.79.79,0,0,0,.78-.8v-7.76Z"/><rect class="cls-26" x="608.73" y="122.38" width="12.05" height="2.04"/><path class="cls-1" d="M591.63,115.46s-3.42-2.76-.82-8.34c.68-1.44,2.18-1.25,1.7,2.26-.32,2.37.23,3.77,1.19,2.57.38-.49.35-.82.81-.88,1.14-.17-.15,3.89-.15,3.89Z"/><path class="cls-4" d="M601.12,130.52s-6.13-14.76-6.41-16l-3.64.74c0,.56,3.82,16.64,3.82,16.64a3.07,3.07,0,0,0,3.82,2.4A3.16,3.16,0,0,0,601.12,130.52Z"/><path class="cls-16" d="M601.77,99.33a1.87,1.87,0,0,1-1.73,2H584.25a1.87,1.87,0,0,1-1.72-2v-2a1.87,1.87,0,0,1,1.72-2H600a1.87,1.87,0,0,1,1.73,2Z"/><path class="cls-28" d="M584.15,98.3c0,1.36-.44,2.46-1,2.46s-1-1.1-1-2.46.43-2.46,1-2.46S584.15,96.94,584.15,98.3Z"/><path class="cls-29" d="M594.25,109.36h0A.29.29,0,0,1,594,109c0-.51,0-2-.62-2.17-.17,0-.61-.09-1.16-.15-2.42-.28-7.47-.85-9.84-2.94a5,5,0,0,1-1.89-4,1.94,1.94,0,0,1,.39-1.42c.38-.37,1-.53,2.26-.53a.31.31,0,0,1,.3.3.3.3,0,0,1-.3.3c-1,0-1.59.11-1.83.35a1.35,1.35,0,0,0-.22,1,4.36,4.36,0,0,0,1.69,3.51c2.22,2,7.14,2.53,9.51,2.8.59.06,1,.11,1.23.16,1.25.31,1.1,2.54,1.07,2.8A.29.29,0,0,1,594.25,109.36Z"/><rect class="cls-30" x="593.08" y="108.73" width="2.5" height="111.62"/><path class="cls-31" d="M596.33,109a.6.6,0,0,1-.62.59H593a.61.61,0,0,1-.63-.59v-.8a.61.61,0,0,1,.63-.59h2.73a.6.6,0,0,1,.62.59Z"/></svg>