<svg id="_Layer_" data-name="&lt;Layer&gt;" xmlns="http://www.w3.org/2000/svg" viewBox="0 0 3116 1640"><defs><style>.cls-1{fill:#fbecdb;}.cls-2{fill:#a8d29f;}.cls-3{fill:#f4a671;}.cls-4{fill:#2c3a64;}.cls-5{fill:#b64c41;}.cls-6{fill:#963333;}.cls-7{fill:#ffb27d;}.cls-8{fill:#f99746;}.cls-9{fill:#ed985f;}.cls-10{fill:#233862;}.cls-11{fill:#ed7d2b;}.cls-12{fill:#2b478b;}.cls-13{fill:#35488b;}.cls-14{fill:#ed975d;}.cls-15{fill:#4a75cb;}.cls-16{fill:#e58638;}.cls-17{fill:#739af0;}.cls-18{opacity:0.5;}.cls-19{fill:#ccdfed;}.cls-20{fill:#efcdaf;}.cls-21{fill:#e2b99a;}.cls-22{fill:#fff3e9;}.cls-23{fill:#afcdfb;}.cls-24{fill:#e57970;}.cls-25{fill:#d3671e;}.cls-26{fill:#f1a34f;}.cls-27{fill:#d86713;opacity:0.4;}.cls-28{fill:#c95c12;}.cls-29{fill:#caddff;}.cls-30{fill:#f9ddbf;}.cls-31{fill:#e5c1a1;}.cls-32{fill:#699ff0;}.cls-33{fill:#b7d2f9;}</style></defs><title>5299</title><path class="cls-1" d="M423.92,1484.7s-306-328.55-51.75-684.26c225.59-315.61,488.61-294,681.58-166,82.19,54.55,319.16,6.72,520.84-314.42C1849.64-117.89,2803,147.73,2629.2,821.53c-84.12,326.07,256,337.92,82.71,663.86Z"/><path class="cls-2" d="M482.23,1485.39s106.58-255.83,329.55-117.86c168.8,104.44,381-30.72,491.52-184.79s777.11,2,925.43,190.14c62.3,79,213.12,6.73,237.12,109.46Z"/><path class="cls-3" d="M1806,945.82c.2-10.45,8.3-28.28-7.71-45.22a337.66,337.66,0,0,1-26.13-32.51c-1.73-2.71-21.1,13.23-20.68,13.87,3.18,4.72,17.8,28.78,19.92,42.2,2.32,15.12,28.23,31.67,28.23,31.67S1805.91,956.22,1806,945.82Z"/><path class="cls-3" d="M1782.17,881.55l-30.73.41s-48.06-75.94-49.53-100c-1.42-23-47.61-123.69,6.46-186.56a101.32,101.32,0,0,1,8-8.29c.1-.11.21-.2.31-.3s.1.15.27.44c1.1,1.84,5.39,9.6,10.42,26.76,7.89,26.82,17.63,76.6,19.93,162.59C1747.26,776.57,1768.65,850.18,1782.17,881.55Z"/><path class="cls-4" d="M1686.27,478.39s-3.31,9,1.58,12.49-12.43,19.65-15.78,33.2.84,20.75.84,20.75-.5-8.2,2.51-12.21c0,0-3.24,9.31,2.12,16.22s2.21,10.43,2.21,10.43,17,.28,21.1-11.21c0,0-1,5.47-2.23,7.47,0,0,16.57-5.8,20.89-17.17s-3.76-24.7-8.79-26.49S1697.5,496.48,1699,492.8,1686.27,478.39,1686.27,478.39Z"/><path class="cls-5" d="M1690.17,1444.5l-19.89,7.41s-86.38-119.81-97-225.22c-1.9-18.82-1.27-37.06,2.84-53.89l-2.32-13.35c-.68-4-1.53-8.77-2.48-14.26-2.81-16.09-6.68-38.1-11.09-63.17-10.17-57.69-23.34-131.44-33.57-185.66l5.36-1.72,58-18.71,12-38.06,43.17-11.36s9.65,18.87,18.27,108c1.59,11.69,3,24.58,4.12,38.56a763.35,763.35,0,0,1-4.1,156.12q-3,23.23-7.59,47.92c-2.27,12.05-2.61,28.46-1.65,47.32C1658.54,1310.59,1690.17,1444.5,1690.17,1444.5Z"/><path class="cls-6" d="M1667.53,973.06l-93.75,186.39c-.68-4-1.53-8.77-2.48-14.26-2.81-16.09-6.68-38.1-11.09-63.17-10.17-57.69-23.34-131.44-33.57-185.66l5.36-1.72,58-18.71,12-38.06,51.57-15.33s1.25,22.84,9.87,112C1665,946.19,1666.45,959.08,1667.53,973.06Z"/><path class="cls-4" d="M1729.48,422.19,1635.85,498s-2.73-16.45-12.36-13.92c-15,3.93-38.1-36.36-20.35-72.81,1.16-2.38,15.58-38.46,61.69-43C1724.11,372.81,1729.48,422.19,1729.48,422.19Z"/><path class="cls-7" d="M1695.75,624.68c-11.41,5.29-25.2,8.9-41.87,9.81-62.52,3.42-76.71-51.38-79.29-87.75A52.55,52.55,0,0,1,1596,544c4.43.24,9.06.7,12.88,1.17,7.65-4,21.38-23.4,29.32-55.86l2.7,1.25L1686,511.8s-4.79,14.68-8.33,28.72c-2.76,11-4.74,21.61-3.08,24.59,3.56,1.44,5.68,2.35,5.68,2.35a.1.1,0,0,0,0,0A309.78,309.78,0,0,1,1695.75,624.68Z"/><path class="cls-8" d="M1711.4,665.69c-.47,1.25-1,2.46-1.56,3.72C1694,703.51,1651,816.18,1651,816.18c4.18,25.4-177.13,23.59-177.64.46-5.51-19.71,13.59-49,30.44-70,4.12-5.13,8.09-9.75,11.55-13.63a56.19,56.19,0,0,0,5.91-8,55.48,55.48,0,0,0,8-23.31c2.33-22.06,2.49-43.18,2.44-60.34,0-8.33-.1-15.72,0-21.84,3.44-2.56,6.77-4.91,9.87-7.15a87.16,87.16,0,0,0,12-10c3.4-3.57,5.53-7.22,5.77-11.35a62,62,0,0,0-.24-9.51c-.15-1.51-.35-3-.58-4.53a128.78,128.78,0,0,0-9.06-30.26C1566.22,540,1596,544,1596,544s0,1.66,0,4.38c-.1,10.89,0,38.86,3.5,44.16,4.36,6.59,84.26,35.48,88.49,26.53,4.15-8.79-7.23-50-7.66-51.58v0c.86.33,1.69.67,2.5,1,4.07,1.66,7.59,3.56,11,4.79,21.73,7.93,23.78,15.16,23.78,15.16C1701.45,598.85,1723.87,632.62,1711.4,665.69Z"/><path class="cls-9" d="M1686,511.81s-4.79,14.66-8.32,28.72c-26.37-7.36-34.38-35.07-36.79-49.93Z"/><path class="cls-7" d="M1691.6,527.34s-63.08-14.6-53.39-53.75,8.09-67.38,48.77-59.72,44.78,24.53,44.72,38.39S1708.26,530.12,1691.6,527.34Z"/><path class="cls-4" d="M1735.25,430c-6.78-14.18-14.76-13.43-19.75-10.91-29.64-27.42-58.72-5-58.72-5-11.19,27-35.44,38.08-35.44,38.08s9.69,9.92,37.78,9.7c8.58-.07,17.21-4,25.05-9.43A151.1,151.1,0,0,1,1651.28,477c35.16-6.73,58.74-47.43,61.15-51.76,3,4.4,8.68,13.76,9.16,21.67.65,10.74-3,31.61,3.11,32.4C1724.7,479.29,1745.42,451.31,1735.25,430Z"/><path class="cls-10" d="M1752.41,1481H1652.24s-3.75-16,2.83-26.85c5.82-9.62,5.35-15.47,1-23.43,4.54,1.86,8.66,3.92,15.12,3.55,5-.28,10.53-3.81,15.16-6.5,4.31,4.92,22.51,27.1,28.28,31.25C1721.2,1463.74,1750.39,1462.06,1752.41,1481Z"/><path class="cls-11" d="M1573.63,755.28c-26.16-1.85-51.05-4.16-69.85-8.67,4.12-5.13,8.09-9.75,11.55-13.63a56.19,56.19,0,0,0,5.91-8,55.48,55.48,0,0,0,8-23.31c2.33-22.06,2.49-43.18,2.44-60.34,22.8-25.53,42-46.29,42-46.29s42.5,39,49.09,77.77S1641.73,760.1,1573.63,755.28Z"/><path class="cls-6" d="M1584.15,543s30.87,36.57,24.26,91.46h12.79S1628.43,596.1,1596,544c0,0-4.23-.6-5.6-.72C1588.84,543.18,1584.15,543,1584.15,543Z"/><path class="cls-6" d="M1695.45,663.57,1683,660.5c16.69-44.11,3.89-81.91-.21-92q6.09,2.49,11,4.79C1711,629.46,1695.45,663.57,1695.45,663.57Z"/><path class="cls-5" d="M1700.85,641.39s-61.58-16-79-20.5-18.75,5.8-18.75,5.8-2.42,33.44-2.69,36.88c-4,52.49-79.21,61.45-79.21,61.45s-19.43,24.21-36.09,48c-28.57,40.81-25.05,109.75-25.05,109.75h0A200,200,0,0,0,1460,910c2.25,36.23,6.38,190.17,10.68,235.72,1.56,16.52,2.92,28.26,3.48,33a.08.08,0,0,1,0,0,6.52,6.52,0,0,1-1.06,4,214,214,0,0,0-15.89,33.43c-42.27,112.63,6.51,251.35,6.51,251.35l12.66-5.1s27.76-154.37,50.31-222.57c3.83-11.57,7.5-20.66,10.86-26.09,9.81-15.83,18.91-41.69,27.17-72.45,15.62-58.16,28.18-133.81,36.55-192.2,1.15.05,10.32-78.42,40.45-114.52l11.8-12.08L1691,730.62s10.33-61.1,13.45-71.36S1700.85,641.39,1700.85,641.39Z"/><path class="cls-11" d="M1609.36,629.81a5.36,5.36,0,1,1,5.35,5.36A5.36,5.36,0,0,1,1609.36,629.81Z"/><path class="cls-8" d="M1610.32,629.81a5.36,5.36,0,1,1,5.36,5.36A5.36,5.36,0,0,1,1610.32,629.81Z"/><path class="cls-12" d="M1612.52,628.8a.77.77,0,0,1,1-.5.78.78,0,1,1-1,.5Z"/><path class="cls-12" d="M1617.36,630.35a.77.77,0,0,1,1-.51.78.78,0,0,1-.47,1.49A.77.77,0,0,1,1617.36,630.35Z"/><path class="cls-11" d="M1686.52,647.18a5.36,5.36,0,1,1,5.36,5.35A5.35,5.35,0,0,1,1686.52,647.18Z"/><path class="cls-8" d="M1687.49,647.18a5.35,5.35,0,1,1,5.35,5.35A5.34,5.34,0,0,1,1687.49,647.18Z"/><path class="cls-12" d="M1689.68,646.17a.78.78,0,0,1,1-.5.77.77,0,0,1,.5,1,.78.78,0,1,1-1.48-.47Z"/><path class="cls-12" d="M1694.52,647.72a.78.78,0,1,1,.5,1A.77.77,0,0,1,1694.52,647.72Z"/><path class="cls-4" d="M1601.94,459.66s-3.32,9,1.58,12.48-12.44,19.65-15.78,33.21.84,20.74.84,20.74-.51-8.2,2.5-12.21c0,0-3.23,9.31,2.12,16.23s2.21,10.42,2.21,10.42,17,.28,21.1-11.21c0,0-1,5.47-2.23,7.48,0,0,16.58-5.8,20.89-17.18s-3.75-24.69-8.79-26.49-13.21-15.39-11.71-19.07S1601.94,459.66,1601.94,459.66Z"/><path class="cls-8" d="M1727.33,614c-14.3,2.1-20.1,10.58-20.1,10.58s-1.23-18,1.14-29.19c.82-3.91,2.09-7,4-8.16.87-.54,2.25-.54,4-.13l.58.14C1718,589.06,1722.3,596.82,1727.33,614Z"/><path class="cls-12" d="M1927.62,947.9c-25.47,1.32-42.89-38.21-53.62-38.73a66.88,66.88,0,0,0-9.4,1,185.62,185.62,0,0,1,23.11,60.12c15.28,76.26-16.91,147-71.89,158-53.47,10.7-108.81-39.08-125.83-112-.48-2-.92-4.1-1.34-6.18a185.45,185.45,0,0,1-1.85-64,1.1,1.1,0,0,1,0-.18,34.3,34.3,0,0,0-5.14,1.64c-9.72,4.62-10.56,47.8-34.59,56.38s-40.22-37.47-11.61-73.34c17.44-21.87,48.36-32.43,69.83-37.34a102.63,102.63,0,0,1,15.31-19.46l.64-.64a62.59,62.59,0,0,1-32.44-61.7l-.15,0a31.72,31.72,0,1,1,34.63-49.27,62.93,62.93,0,0,1,29.8-6.41,31.72,31.72,0,1,1,52.13,31.46,62.6,62.6,0,0,1-3.86,67.91,100.45,100.45,0,0,1,25.93,13.67c21.53-4.12,56.74-7.46,82.81,6.87C1950.33,897.83,1953.1,946.55,1927.62,947.9Z"/><path class="cls-10" d="M1690,1016.35c-.48-2-.92-4.1-1.34-6.18a185.45,185.45,0,0,1-1.85-64c3.15-3.68,7.35-6.41,12.12-4.15,10.52,5,8.86,55.38,24.92,67C1735.75,1017.68,1706,1017.78,1690,1016.35Z"/><path class="cls-10" d="M1751.08,865.89a176,176,0,0,1-30.46,8l.64-.64a62.59,62.59,0,0,1-32.44-61.7l-.15,0c.63-.25,1.44.14,2.49,1.62,4,5.68,25.67,51.65,59.92,46.39C1751.08,859.52,1760,862.57,1751.08,865.89Z"/><path class="cls-10" d="M1767.32,759.83s8-15,19.93-11.08,13.57,21,5.82,25.76C1793.07,774.51,1781.53,763.83,1767.32,759.83Z"/><path class="cls-10" d="M1711.38,768.57s-17.17-7.91-24.93,1.23,7.76,20.79,7.76,20.79S1701.68,775.1,1711.38,768.57Z"/><path class="cls-7" d="M1718.38,852.54,1712.85,873s-19.43-7.08-29.45-10.87c-3-1.16-4.7-1.92-4.7-1.92-8-3.13-17.52-7.15-27.9-11.47l-.15,0c-17.71-7.79-37.48-16.87-53.89-26-11.52-6.52-21.35-13-27.78-18.94a18.74,18.74,0,0,1-1.81-1.85c-15.05-15.72-29-56.47-37.78-99-1.23-5.88-2.31-11.74-3.42-17.45-3.82-21.18-6.22-41.8-6.72-59.33-.4-10.47-.23-19.92.84-27.53a67.52,67.52,0,0,1,1.22-7.58c8-42.9,30.45-45,30.45-45,.47-.07.94-.14,1.56-.18,3.81.08,7.21,3.29,10.33,8.9,3.93,7,7.47,17.87,10.79,30.86,5,20.63,9.41,47,13.26,73.06,2.16,14.3,4.17,28.58,6.36,41.83,1.15,8,2.39,15.57,3.58,22.52,2.35,13.27,4.67,24.09,7.23,31.13,1.62,4.57,7.39,11.58,15.24,19.73,13.64,14.24,34.11,32.16,52.07,47,7.44,6.24,14.52,12,20.39,16.69C1702,845.33,1718.38,852.54,1718.38,852.54Z"/><path class="cls-8" d="M1577,585.94c-28.51-13.41-55.71,5.06-55.71,5.06,8.26-43.54,31.76-45.46,31.76-45.46C1562.69,543.56,1570.42,560.57,1577,585.94Z"/><path class="cls-7" d="M1705.24,848s11.8,4.7,18.52,5.89,17.07-2.14,25.58,3.41,14.56,9.25,14.56,9.25,2.08,3.14-2.45,4.42c-2.58.73-15.63-7.53-16.18-5.33s8.3,7.13,13.44,7.41,14.53,4.79,14.53,8.12-15.2,11.2-24.08,10.65-27.12-16.21-31.74-17.32-24-8.86-24-8.86Z"/><path class="cls-10" d="M1537.33,1481H1437.16s-2.4-15.27,2.84-26.85c5-11.11,13.79-16.61,11.91-30.06,6.37,6.55,15.12,12.87,29.6,10.92,1.78,2.87,12.14,19.75,18.07,24C1506.13,1463.75,1535.32,1462.07,1537.33,1481Z"/><g id="man"><path class="cls-4" d="M2573.27,1389.22s19.4,18,15.62,30.76-21.3,21.3-23.66,36.91-11.84,24.14-20.35,24.14h-40.62s-6.27-11,8.88-14.3,20.85-21.67,19.9-38.7,1.42-39.76,1.42-39.76l32.19-7.57Z"/><path class="cls-4" d="M2331.44,1479.28c-1.48.75-5.82,1.31-12,1.75h-98.22c.46-3.15,3-12.2,17.42-14.53,17-2.75,46.36-12.62,52.92-34.3.2-.71.39-1.42.55-2.15,5.21-23.18,43.07,7.11,43.07,7.11s.11.92.28,2.5C2336.38,1448.16,2338.62,1475.68,2331.44,1479.28Z"/><path class="cls-13" d="M2243.18,859s5.75,71.74,12.51,158c9.19,117.14,20.23,261,21.33,288.3,1.88,47.33,9.46,123,9.46,123s18,18,54,10.41c0,0,32-108.09,41.21-222.45.14-1.88.29-3.77.43-5.65,8.52-116.42,21.76-361.58,21.76-361.58Z"/><path class="cls-4" d="M2243.18,859s5.75,71.74,12.51,158l126,199.31c.14-1.88.29-3.77.43-5.65,8.52-116.42,21.76-361.58,21.76-361.58Z"/><path class="cls-13" d="M2269.44,867.54s103.64,259.82,171.79,381.92,89.45,156.17,89.45,156.17,39-15.61,42.59-26.26c0,0-26.06-235.72-71.7-293.18-25.78-32.47-56.08-129.91-57.5-164s-9.23-101.51-9.23-101.51Z"/><path class="cls-7" d="M2066,831.58s-36.57,17.56-41.5,22.06-17.07,26.63-16.13,28.29,2.75,2.19,6.06-.1,12.62-11.88,13-10.1-24.82,31.4-20.37,37.67,29.68,4.41,44.09-5.84,28.79-47.91,31-50C2100.48,836.15,2066,831.58,2066,831.58Z"/><path class="cls-11" d="M2064.39,850.39c-10.15-8.83-10.42-11.07-10.42-11.07s64.86-112.14,70.48-122.93,40.38-179.21,40.38-179.21L2285,502.34s-84.64,218.86-99.42,245.91C2161.14,793,2081.4,858.73,2081.4,858.73A37.51,37.51,0,0,1,2064.39,850.39Z"/><path class="cls-7" d="M2223.78,458.51s-42.29,74.4-83.62,84.12c0,0,1.72-25,11.79-42.09-4.13-4.86-7.74-9.33-10.88-13.33a250.56,250.56,0,0,1-15.35-21.49l14-37.71,9.52-25.59a122.75,122.75,0,0,0,14.87,21.43C2191.23,455,2223.78,458.51,2223.78,458.51Z"/><path class="cls-14" d="M2164.14,423.85s5.05,37.29-23.07,63.36a250.56,250.56,0,0,1-15.35-21.49l14-37.71C2154.79,423.42,2164.14,423.85,2164.14,423.85Z"/><path class="cls-7" d="M2114.58,471.22s63.18-24.63,47.23-63.75-18.52-68.63-59.54-54.55-42.72,32.17-40.57,46.52S2097.73,476.62,2114.58,471.22Z"/><path class="cls-8" d="M2441,840.33c-25.48,36.63-216.05,85.59-213.78,60.24a276,276,0,0,0,0-50c-.48-5.44-1.17-11.21-2-17.28-4.85-33.35-16.34-76.19-42-125.81-1.92-3.72-3.92-7.46-6-11.26a384.87,384.87,0,0,1-26.41-59.36c-13.21-38.15-18.55-74.67-11.87-98.53a1.5,1.5,0,0,1,.1-.32c39.83-18.42,55.26-89.85,55.26-89.85s135.9,24.39,212,205.53c0,0,7.31,19.89,15.66,46.88,10.15,32.74,21.84,75.91,23.86,106.7C2446.76,821.88,2445.54,833.72,2441,840.33Z"/><path class="cls-12" d="M2170.88,334.82c.45-.87,1.73-1.81,4.87-2.77a13.22,13.22,0,0,0-6.36-.23c-1.77-4.33-6.09-11.7-14.17-11.76a10,10,0,0,1,6.34,5.85c-11.08-7-31.62-9.06-82.91,8-67.58,22.51-33.82,61.75-23.57,64.89s29.1-17,46.06-19.79,26.14,20.87,32.6,22.83,2.79-3.42,9.56-8.81,10.66,7.29,10.52,16.18,13,17.33,13,17.33l7.75-14.2c7.74-14.21,5.63-65.77-1.76-75.05C2172.2,336.49,2171.55,335.66,2170.88,334.82Z"/><path class="cls-11" d="M2445.77,807.25c-164-49.46-190.07-245-190.07-245s93.36,71.35,166.21,138.27C2432.06,733.29,2443.75,776.46,2445.77,807.25Z"/><path class="cls-7" d="M2490.73,813.67s-3.7,31-2.8,36.09,6.8,20.12,8.27,20.21,5.93.26,5.81-2.84-2.14-6-.84-5.49,1.67,12.22,7.58,11.92,23.33-6.87,22.62-20.47-19.25-38.51-19.69-40.77C2507.93,793.17,2490.73,813.67,2490.73,813.67Z"/><path class="cls-8" d="M2500.55,818.91c-13,6-17.84-.12-17.84-.12S2406.93,692.24,2399,682.07s-147.88-70.21-147.88-70.21-56.93-21.77-59.18-56.3c-2-30,15.08-48.45,33.74-59.57a63,63,0,0,1,70.81,4.57C2342.33,536.2,2433.3,607.89,2448,627.33c32.58,43.27,68.7,178.89,68.7,178.89A45.21,45.21,0,0,1,2500.55,818.91Z"/><path class="cls-15" d="M2174.8,904.72l-34.11,34.08-.47-.3L2089,906.39s26.49,8.55,30.07,7.55c3.38-.94,40.38-13.65,49.11-12.6a3.71,3.71,0,0,1,1.27.36Z"/><path class="cls-16" d="M2139.15,948.05c-1.37-.3-5.43-1.26-11-2.67-15.89-4.08-43.91-11.88-55-18.28-9.92-5.75-62.37-36.24-98.5-57.66a67,67,0,0,1,40.55-7.29c42.18,24.76,97.3,57.26,104,62,11.09,7.8,26.21,17.24,26.21,17.24a9.34,9.34,0,0,1-.21,1.07C2144.79,944.57,2143.21,948.92,2139.15,948.05Z"/><path class="cls-17" d="M2139.15,948.05c-1.37-.3-5.43-1.26-11-2.67-15.89-4.08-43.91-11.88-55-18.28-9.92-5.75-62.37-36.24-98.5-57.66-18.15-10.75-32.18-19.22-34.64-21.11-7.37-5.67-21.56-19.84-18.07-22.51s10.29,0,12.85-.38l.11,0c.6-.09,1.59-.25,3-.33,4.87-.29,14.53.39,28.29,8.33,0,0,21.84,12.75,49,28.73,42.18,24.76,97.3,57.26,104,62,11.09,7.8,26.21,17.24,26.21,17.24a9.34,9.34,0,0,1-.21,1.07C2144.79,944.57,2143.21,948.92,2139.15,948.05Z"/><path class="cls-15" d="M2139.15,948.05c-1.37-.3-5.43-1.26-11-2.67.71-6.31-3.69-11.33-3.69-11.33l20.79,8.42C2144.79,944.57,2143.21,948.92,2139.15,948.05Z"/><g class="cls-18"><path class="cls-15" d="M2094.1,921.26h0a.69.69,0,0,1-.25-.94l.37-.62a.7.7,0,0,1,.94-.24h0a.69.69,0,0,1,.24.94l-.37.62A.68.68,0,0,1,2094.1,921.26Z"/><path class="cls-15" d="M2091.06,919.46h0a.67.67,0,0,1-.24-.93l.37-.63a.68.68,0,0,1,.93-.24h0a.69.69,0,0,1,.24.94l-.37.62A.67.67,0,0,1,2091.06,919.46Z"/><path class="cls-15" d="M2088,917.67h0a.69.69,0,0,1-.24-.94l.37-.62a.67.67,0,0,1,.93-.24h0a.67.67,0,0,1,.24.93l-.36.63A.7.7,0,0,1,2088,917.67Z"/><path class="cls-15" d="M2085,915.87h0a.69.69,0,0,1-.24-.94l.37-.62a.68.68,0,0,1,.93-.24h0a.69.69,0,0,1,.25.94l-.37.62A.69.69,0,0,1,2085,915.87Z"/><path class="cls-15" d="M2081.94,914.08h0a.7.7,0,0,1-.24-.94l.37-.63a.69.69,0,0,1,.94-.24h0a.69.69,0,0,1,.24.94l-.37.62A.69.69,0,0,1,2081.94,914.08Z"/><path class="cls-15" d="M2078.9,912.28h0a.69.69,0,0,1-.24-.94l.37-.62a.68.68,0,0,1,.94-.24h0a.69.69,0,0,1,.24.94l-.37.62A.69.69,0,0,1,2078.9,912.28Z"/><path class="cls-15" d="M2075.86,910.48h0a.68.68,0,0,1-.24-.93l.37-.63a.69.69,0,0,1,.94-.24h0a.69.69,0,0,1,.24.94l-.37.62A.68.68,0,0,1,2075.86,910.48Z"/><path class="cls-15" d="M2072.83,908.69h0a.69.69,0,0,1-.25-.94l.37-.62a.68.68,0,0,1,.94-.24h0a.68.68,0,0,1,.24.93l-.37.63A.68.68,0,0,1,2072.83,908.69Z"/><path class="cls-15" d="M2069.79,906.89h0a.68.68,0,0,1-.24-.94l.37-.62a.68.68,0,0,1,.93-.24h0a.68.68,0,0,1,.24.94l-.37.62A.68.68,0,0,1,2069.79,906.89Z"/><path class="cls-15" d="M2034,885.73h0a.69.69,0,0,1-.24-.94l.37-.62a.68.68,0,0,1,.94-.24h0a.68.68,0,0,1,.24.93l-.37.63A.69.69,0,0,1,2034,885.73Z"/><path class="cls-15" d="M2030.94,883.93h0a.69.69,0,0,1-.24-.94l.37-.62a.69.69,0,0,1,.94-.24h0a.69.69,0,0,1,.24.94l-.37.62A.69.69,0,0,1,2030.94,883.93Z"/><path class="cls-15" d="M2027.91,882.13h0a.67.67,0,0,1-.24-.93l.37-.63a.68.68,0,0,1,.93-.24h0a.69.69,0,0,1,.24.94l-.37.62A.67.67,0,0,1,2027.91,882.13Z"/><path class="cls-15" d="M2024.87,880.34h0a.68.68,0,0,1-.24-.94l.37-.62a.67.67,0,0,1,.93-.24h0a.67.67,0,0,1,.24.93l-.37.63A.68.68,0,0,1,2024.87,880.34Z"/><path class="cls-15" d="M2021.83,878.54h0a.67.67,0,0,1-.24-.93l.37-.63a.68.68,0,0,1,.93-.24h0a.68.68,0,0,1,.24.94l-.36.62A.69.69,0,0,1,2021.83,878.54Z"/><path class="cls-15" d="M2018.79,876.75h0a.7.7,0,0,1-.24-.94l.37-.62a.68.68,0,0,1,.94-.24h0a.68.68,0,0,1,.24.93l-.37.63A.69.69,0,0,1,2018.79,876.75Z"/><path class="cls-15" d="M2015.75,875h0a.69.69,0,0,1-.24-.94l.37-.62a.69.69,0,0,1,.94-.24h0a.69.69,0,0,1,.24.94l-.37.62A.69.69,0,0,1,2015.75,875Z"/><path class="cls-15" d="M2012.71,873.16h0a.68.68,0,0,1-.24-.93l.37-.63a.69.69,0,0,1,.94-.24h0a.69.69,0,0,1,.24.94l-.37.62A.69.69,0,0,1,2012.71,873.16Z"/><path class="cls-15" d="M2009.67,871.36h0a.69.69,0,0,1-.24-.94l.37-.62a.69.69,0,0,1,.94-.24h0a.68.68,0,0,1,.24.93l-.37.63A.69.69,0,0,1,2009.67,871.36Z"/><path class="cls-15" d="M1997.92,864.41h0a.68.68,0,0,1-.24-.94l.36-.62a.69.69,0,0,1,.94-.24h0a.67.67,0,0,1,.24.93l-.37.63A.68.68,0,0,1,1997.92,864.41Z"/><path class="cls-15" d="M2003.86,867.92h0a.68.68,0,0,1-.24-.94l.37-.62a.68.68,0,0,1,.93-.24h0a.68.68,0,0,1,.24.94l-.37.62A.68.68,0,0,1,2003.86,867.92Z"/><path class="cls-15" d="M1994.88,862.61h0a.68.68,0,0,1-.24-.94l.37-.62a.68.68,0,0,1,.93-.24h0a.68.68,0,0,1,.24.94l-.37.62A.67.67,0,0,1,1994.88,862.61Z"/><path class="cls-15" d="M1991.84,860.82h0a.69.69,0,0,1-.24-.94l.37-.63a.68.68,0,0,1,.93-.24h0a.69.69,0,0,1,.25.94l-.37.63A.69.69,0,0,1,1991.84,860.82Z"/><path class="cls-15" d="M1988.8,859h0a.69.69,0,0,1-.24-.94l.37-.62a.69.69,0,0,1,.94-.24h0a.69.69,0,0,1,.24.94l-.37.62A.69.69,0,0,1,1988.8,859Z"/><path class="cls-15" d="M1985.76,857.22h0a.68.68,0,0,1-.24-.93l.37-.63a.69.69,0,0,1,.94-.24h0a.69.69,0,0,1,.24.94l-.37.62A.68.68,0,0,1,1985.76,857.22Z"/><path class="cls-15" d="M1982.72,855.43h0a.69.69,0,0,1-.24-.94l.37-.62a.68.68,0,0,1,.94-.24h0a.68.68,0,0,1,.24.93l-.37.63A.69.69,0,0,1,1982.72,855.43Z"/><path class="cls-15" d="M1979.69,853.63h0a.68.68,0,0,1-.24-.94l.36-.62a.69.69,0,0,1,.94-.24h0a.69.69,0,0,1,.24.94l-.37.62A.68.68,0,0,1,1979.69,853.63Z"/><path class="cls-15" d="M1976.65,851.84h0a.68.68,0,0,1-.24-.94l.37-.63a.68.68,0,0,1,.93-.24h0a.69.69,0,0,1,.24.94l-.37.62A.68.68,0,0,1,1976.65,851.84Z"/><path class="cls-15" d="M1973.61,850h0a.68.68,0,0,1-.24-.94l.37-.62a.67.67,0,0,1,.93-.24h0a.67.67,0,0,1,.24.93l-.37.63A.68.68,0,0,1,1973.61,850Z"/><path class="cls-15" d="M1970.63,848.28h0a.69.69,0,0,1-.24-.94l.37-.62a.68.68,0,0,1,.94-.24h0a.69.69,0,0,1,.24.94l-.37.62A.69.69,0,0,1,1970.63,848.28Z"/><path class="cls-15" d="M1967.59,846.48h0a.68.68,0,0,1-.24-.93l.37-.63a.69.69,0,0,1,.94-.24h0a.69.69,0,0,1,.24.94l-.37.62A.68.68,0,0,1,1967.59,846.48Z"/><path class="cls-15" d="M1964.55,844.69h0a.69.69,0,0,1-.24-.94l.37-.62a.68.68,0,0,1,.94-.24h0a.68.68,0,0,1,.24.93l-.37.63A.69.69,0,0,1,1964.55,844.69Z"/><path class="cls-15" d="M1941.2,829a1.07,1.07,0,0,1-1.18.34,1,1,0,0,1-.29-.17l-4.77-3.77c.6-.09,1.59-.25,3-.33l3.11,2.46A1.06,1.06,0,0,1,1941.2,829Z"/><rect class="cls-15" x="2017.18" y="872.84" width="3.65" height="7.05" rx="1.29" ry="1.29" transform="translate(726.56 -905.2) rotate(30.58)"/><rect class="cls-15" x="2023.22" y="876.41" width="3.65" height="7.05" rx="1.29" ry="1.29" transform="translate(729.3 -907.84) rotate(30.58)"/><path class="cls-15" d="M2060.86,901.61h0a.68.68,0,0,1-.24-.94l.36-.62a.69.69,0,0,1,.94-.24h0a.69.69,0,0,1,.24.94l-.37.62A.67.67,0,0,1,2060.86,901.61Z"/><path class="cls-15" d="M2057.82,899.82h0a.68.68,0,0,1-.24-.94l.37-.63a.68.68,0,0,1,.93-.24h0a.69.69,0,0,1,.24.94l-.37.62A.68.68,0,0,1,2057.82,899.82Z"/><path class="cls-15" d="M2054.78,898h0a.69.69,0,0,1-.24-.94l.37-.62a.67.67,0,0,1,.93-.24h0a.68.68,0,0,1,.24.94l-.36.62A.7.7,0,0,1,2054.78,898Z"/><path class="cls-15" d="M2051.74,896.22h0a.68.68,0,0,1-.24-.93l.37-.63a.68.68,0,0,1,.93-.24h0a.69.69,0,0,1,.25.94l-.37.62A.69.69,0,0,1,2051.74,896.22Z"/><path class="cls-15" d="M2048.7,894.43h0a.69.69,0,0,1-.24-.94l.37-.62a.68.68,0,0,1,.94-.24h0a.68.68,0,0,1,.24.93l-.37.63A.69.69,0,0,1,2048.7,894.43Z"/><path class="cls-15" d="M2045.66,892.63h0a.69.69,0,0,1-.24-.94l.37-.62a.69.69,0,0,1,.94-.24h0a.69.69,0,0,1,.24.94l-.37.62A.69.69,0,0,1,2045.66,892.63Z"/><path class="cls-15" d="M2042.63,890.83h0a.68.68,0,0,1-.25-.93l.37-.63a.69.69,0,0,1,.94-.24h0a.69.69,0,0,1,.24.94l-.37.62A.67.67,0,0,1,2042.63,890.83Z"/><path class="cls-15" d="M2039.59,889h0a.69.69,0,0,1-.25-.94l.37-.62a.68.68,0,0,1,.94-.24h0a.68.68,0,0,1,.24.93l-.37.63A.68.68,0,0,1,2039.59,889Z"/><path class="cls-15" d="M2036.55,887.24h0a.67.67,0,0,1-.24-.93l.36-.63a.7.7,0,0,1,.94-.24h0a.68.68,0,0,1,.24.94l-.37.62A.67.67,0,0,1,2036.55,887.24Z"/></g><path class="cls-12" d="M2017.84,895.75a2.45,2.45,0,0,0,2.56-3.62,13.88,13.88,0,0,0-4.85-5.17c-4.6-2.66-6,5.76-4.47,6.71A26.75,26.75,0,0,0,2017.84,895.75Z"/><path class="cls-12" d="M2017.39,885.74l-5.65,9.56a51.42,51.42,0,0,1-13.31-5.43,40.93,40.93,0,0,1-9-6.56,12.68,12.68,0,0,1-1.35-1.51l5.92-10a5.76,5.76,0,0,1,2.09.27c6.73,1.9,20.55,12.8,20.55,12.8Z"/><path class="cls-15" d="M1996.06,872l-6.66,11.27a12.68,12.68,0,0,1-1.35-1.51l5.92-10A5.76,5.76,0,0,1,1996.06,872Z"/><path class="cls-12" d="M2124.75,932.37c.28-.1,19.81,4.31,30.43,12.08l-13.43-.2-17.24-10.2S2123.37,932.88,2124.75,932.37Z"/><path class="cls-15" d="M2084.89,893.47s-12.09,8.31-14.19,9.44-5.47.82-5.47.82h0l-20.79-3.51s-22.15-12.94-26.92-15.87h0c-.43-.26-.72-.45-.84-.53-1.4-1-1.86-1.91-1.39-2.19s36.92,14.22,40.94,15.85l.12,0c3.92,1.57,4.71.75,4.71.75l20.1-5.51a1.94,1.94,0,0,1,1.07-.13A9.71,9.71,0,0,1,2084.89,893.47Z"/><path class="cls-15" d="M2082.21,892.62c-5.49,1.69-20.68,6.33-22,6.5s-34.57-11.83-42.71-14.77h0c-.43-.26-.72-.45-.84-.53-1.4-1-1.86-1.91-1.39-2.19s36.92,14.22,40.94,15.85,4.83.79,4.83.79l20.1-5.51A1.94,1.94,0,0,1,2082.21,892.62Z"/><path class="cls-15" d="M2084.89,893.47s-12.09,8.31-14.19,9.44-5.47.82-5.47.82h0a45.07,45.07,0,0,1-8.88-6.22c3.92,1.57,4.71.75,4.71.75l20.1-5.51a1.94,1.94,0,0,1,1.07-.13A9.71,9.71,0,0,1,2084.89,893.47Z"/><path class="cls-17" d="M2141.16,939,2089,906.39s26.92,8.78,30.54,7.8c3.42-.92,40.84-13.41,49.68-12.28C2159.2,906,2135.62,916,2134,921.6,2132.44,926.91,2138.17,935.17,2141.16,939Z"/></g><path class="cls-4" d="M889.31,304.72c-.1-2.88-2.33-33.92-49.61-35.55,0,0,23.25,2.78,27.26,13,0,0-15.83-12.63-28.72-8.57s-20.46,26.65-20.54,34.08,7.09,31.37,15.27,33.41a25,25,0,0,0,9.91,0,110.76,110.76,0,0,0-6.35,11.34c-18.86,38.72.59,76.57,16.56,72.39,10.25-2.68,13.14,14.79,13.14,14.79l99.52-80.56S929.19,283.43,889.31,304.72Z"/><path class="cls-12" d="M924,1445.58l-21.14,7.88S811,1326.12,799.71,1214.09c-2-20-1.35-39.38,3-57.28,0,0-.9-5.12-2.47-14.18-.73-4.23-1.62-9.32-2.64-15.16-3-17.1-7.09-40.5-11.79-67.14C775,999,761,920.63,750.16,863l5.7-1.83,61.62-19.88,12.74-40.45,45.88-12.08s10.26,20.05,19.42,114.78c1.69,12.42,3.23,26.12,4.38,41a811.75,811.75,0,0,1-4.36,165.93q-3.16,24.69-8.06,50.92c-2.42,12.81-2.78,30.26-1.76,50.29C890.34,1303.25,924,1445.58,924,1445.58Z"/><path class="cls-10" d="M899.9,944.53l-99.64,198.1c-.73-4.23-1.62-9.32-2.64-15.16-3-17.1-7.09-40.5-11.79-67.14C775,999,761,920.63,750.16,863l5.7-1.83,61.62-19.88,12.74-40.45,45.88-12.08s10.26,20.05,19.42,114.78C897.21,916,898.75,929.67,899.9,944.53Z"/><path class="cls-12" d="M856.07,814.19l-2.31-19.78c-38.64,10.26-141.9-28.68-141.9-28.68s-37.44,32.91-32.52,111.79c2.4,38.5,6.78,202.11,11.36,250.53,1.65,17.55,3.1,30,3.69,35a.11.11,0,0,1,0,0,6.89,6.89,0,0,1-1.12,4.29,226.08,226.08,0,0,0-16.89,35.53c-44.93,119.71,6.92,267.14,6.92,267.14l13.45-5.42s29.5-164.07,53.47-236.56c4.07-12.29,8-21.95,11.55-27.73,10.42-16.82,20.1-44.3,28.87-77,16.6-61.8,30-142.21,38.84-204.27C830.72,919.16,856.07,814.19,856.07,814.19Z"/><path class="cls-9" d="M1160.52,788.92c-8.32,7.36-30.39-17.91-33.43-21.27a2,2,0,0,0-.32-.48l6.72-18.72s29-1.12,33.75,3.68S1169.64,781.08,1160.52,788.92Z"/><path class="cls-9" d="M1133.49,748.45l-2.88,19.36s-1.28,0-3.52-.16c-7-.48-24.15-1.44-43.51-3.52-29.11-2.88-63.67-8-77.42-16.48-21-12.79-55.35-52-77.74-91.18a25.89,25.89,0,0,1-1.6-2.88c-11.68-20.79-19.84-41.43-20.48-57.9a82.73,82.73,0,0,1,2.72-26.24,66.94,66.94,0,0,1,11.84-23.67,11.93,11.93,0,0,1,2.24-2.72c7.68-9.12,15.19-13,15.19-13,3.84-1.6,8,.32,12.32,5v.16a73.39,73.39,0,0,1,11,16.32c.16.16.32.32.32.48.8,1.44,1.6,3,2.56,4.8a4,4,0,0,1,.64,1.12q2.64,5.52,5.28,11.51c19.67,42.87,40.63,107.82,58.06,127.17,7.52,8.32,41.91,24.64,69.27,36.79C1117.49,742.05,1133.49,748.45,1133.49,748.45Z"/><path class="cls-7" d="M929.89,574.26c-12.13,5.63-26.78,9.46-44.5,10.43-66.44,3.64-81.52-54.6-84.27-93.26a55.69,55.69,0,0,1,22.8-2.88c4.71.26,9.63.74,13.68,1.24,8.13-4.24,22.73-24.87,31.17-59.36l2.86,1.33,47.94,22.53s-5.09,15.6-8.85,30.53c-2.93,11.68-5,23-3.28,26.13,3.78,1.53,6,2.5,6,2.5a.1.1,0,0,0,0,0A329.1,329.1,0,0,1,929.89,574.26Z"/><path class="cls-8" d="M946.51,617.86c-.5,1.32-1,2.62-1.65,3.95-16.83,36.24-48,186.36-48,186.36,4.44,27-202.84-5.3-203.37-29.88-7.3-26,25.9-67.92,44.62-88.92a59.76,59.76,0,0,0,14.78-33.24c3.67-34.83,2.27-67.48,2.58-87.33h0c3.66-2.7,7.2-5.21,10.5-7.59a94.38,94.38,0,0,0,12.77-10.59c3.6-3.8,5.87-7.68,6.12-12.07a64.71,64.71,0,0,0-.25-10.11c-.16-1.6-.37-3.21-.61-4.81a137.18,137.18,0,0,0-9.63-32.16c17.83-7.21,49.53-2.91,49.53-2.91s0,1.76,0,4.64c-.11,11.58,0,41.31,3.71,46.94,4.64,7,89.56,37.71,94,28.2S914,515.16,913.5,513.5a.1.1,0,0,1,0,0C941.92,524.62,952.09,534,952.09,534,935,545.1,959.77,582.7,946.51,617.86Z"/><path class="cls-9" d="M919.58,454.3s-5.1,15.59-8.86,30.53c-28-7.82-36.53-37.27-39.09-53.06Z"/><path class="cls-7" d="M925.48,470.81s-67-15.52-56.74-57.12,8.59-71.62,51.83-63.48,47.59,26.08,47.53,40.8S943.18,473.77,925.48,470.81Z"/><path class="cls-4" d="M971.87,367.39c-7.2-15.08-15.69-14.27-21-11.6-31.5-29.14-62.4-5.33-62.4-5.33-11.89,28.73-37.67,40.47-37.67,40.47s10.3,10.54,40.15,10.31c9.12-.07,18.29-4.26,26.63-10a160.54,160.54,0,0,1-35,26.08c37.37-7.16,62.43-50.42,65-55,3.17,4.67,9.22,14.63,9.73,23,.69,11.42-3.23,33.59,3.31,34.43C960.66,419.74,982.68,390,971.87,367.39Z"/><path class="cls-8" d="M952.09,534s16.15,28.16,18.56,35.4c0,0-20.93-.8-29.38,15.3C941.27,584.68,939.24,537.77,952.09,534Z"/><path class="cls-11" d="M841.07,757.72c-40.88-.43-75.5-42.88-96.65-76.81a59.1,59.1,0,0,0,8.49-24.78c3.67-34.83,2.27-67.48,2.58-87.33h0c3.66-2.7,7.2-5.21,10.5-7.59a94.38,94.38,0,0,0,12.77-10.59C812.24,607.19,896.5,758.31,841.07,757.72Z"/><path class="cls-10" d="M761.52,1481.07H655.06s-2.55-16.22,3-28.53c5.33-11.82,13.68-17.18,11.68-31.48,6.76,7,17.79,14.77,33.18,12.7,1.88,3.06,12.17,19.42,18.47,23.94C728.36,1462.7,759.38,1460.92,761.52,1481.07Z"/><path class="cls-10" d="M990.11,1481.07H883.65s-4-17,3-28.53c6.18-10.23,3.81-16-.77-24.51a41.45,41.45,0,0,0,17.93,3.38c5.31-.31,10.91-2.71,15.83-5.57,4.59,5.22,24.21,27.46,30.34,31.86C956.94,1462.7,988,1460.92,990.11,1481.07Z"/><polygon class="cls-10" points="1082.2 695.41 978.62 830.15 987.04 836.05 1091.9 701.3 1082.2 695.41"/><polygon class="cls-12" points="1091.9 701.3 1197.02 701.3 1086.98 836.05 987.04 836.05 1091.9 701.3"/><polygon class="cls-19" points="1082.2 695.41 1186.63 695.41 1192.53 701.3 1091.9 701.3 1082.2 695.41"/><polygon class="cls-12" points="1084.98 697.1 1188.53 697.1 1190.21 695.41 1082.2 695.41 1084.98 697.1"/><path class="cls-7" d="M1070.27,783.07c-.29-5.36-7.36-5.11-12.73-5.14-8.81,0-22.71-.64-30.75-3.72,0,0,25.67-.37,20.22-8.48-1-1.48-13.76-.36-28-.36-5.85,0-20.29,8-19.54,8.38-10.32-1.37-19.71-3.37-22.75-4h0c-7-3.84-15.51-8.48-24.47-13.6-21.59-12.16-46.39-27-63.34-39.35-9.76-7-17.12-13.28-19.68-17.76-4-6.88-8.48-17.75-13.44-31.19-2.56-7-5.28-14.72-8-22.87-4.79-13.44-9.59-28-14.55-42.55-9-26.56-18.56-53.27-27.67-73.91-5.92-13-11.68-23.67-17.12-30.23-4.32-5.28-8.48-8-12.48-7.36-.64.16-1.12.32-1.6.48,0,0-23,6.4-23.35,52.79a70.78,70.78,0,0,0,.16,8.16c.32,8.16,1.92,18.07,4.32,28.95,3.84,18.24,10.23,39.35,18.23,60.79,2.24,5.76,4.48,11.67,6.88,17.59,17.28,42.87,39.51,82.86,58.23,96.46a19.41,19.41,0,0,0,2.24,1.6c7.83,5,19.35,9.92,32.63,14.56,18.87,6.4,41.27,12.15,61.26,17h.16c11.68,2.56,22.4,5,31.36,6.72,0,0,1.47.37,4.08.89l1.2.23a358,358,0,0,1,42.39,13c23,9.11,40-2.22,47.66-10.24C1066.7,794.72,1070.54,788,1070.27,783.07Z"/><path class="cls-8" d="M805.51,528.57c-30.8-8.49-54.55,15.55-54.55,15.55.39-46.31,23.44-52.65,23.44-52.65C783.67,487.63,794.42,503.69,805.51,528.57Z"/><path class="cls-20" d="M1538.06,1095.41c-12.57-11.31-2.23-38-7-43.29a44.29,44.29,0,0,0-4.9-3.91,123.06,123.06,0,0,1-17.31,39c-28.55,42.93-76.79,61-107.74,40.47-30.09-20-32.74-69.3-6.58-111.48.73-1.18,1.49-2.35,2.27-3.53a123.36,123.36,0,0,1,29.09-30.88l.09-.07a22.78,22.78,0,0,0-3.18-1.64c-6.72-2.38-27.33,17.48-42.63,10.25s-1.32-36.41,28.9-39.84c18.43-2.09,37.88,7.43,50.25,15.18a68.29,68.29,0,0,1,16.3-2h.6a41.43,41.43,0,0,1,13.68-44.13l-.05-.1a21,21,0,1,1,39.32-6.9,41.75,41.75,0,0,1,17,10.95,21,21,0,1,1,9.72,39.18,41.48,41.48,0,0,1-33.62,30,66.46,66.46,0,0,1,5.76,18.56c12,8.15,30.12,23.07,35.64,42C1572.16,1082.55,1550.64,1106.71,1538.06,1095.41Z"/><path class="cls-21" d="M1394.51,1016.23c.73-1.18,1.49-2.35,2.27-3.53a123.36,123.36,0,0,1,29.09-30.88c3.2-.24,6.45.44,7.63,3.73,2.6,7.27-21.78,30.14-19.69,43.11C1415.36,1038.28,1401.34,1024.39,1394.51,1016.23Z"/><path class="cls-21" d="M1493.64,974.25a116.43,116.43,0,0,1-18-10.51h.6a41.43,41.43,0,0,1,13.68-44.13l-.05-.1c.41.18.61.74.41,1.93-.78,4.54-12.15,36.25,6.38,49.82C1496.62,971.26,1499.39,976.88,1493.64,974.25Z"/><path class="cls-22" d="M1550.93,932.1s10.77-3.26,14.54,4.14-3.49,16.23-9.33,14.8C1556.14,951,1555.72,940.63,1550.93,932.1Z"/><path class="cls-22" d="M1520.59,910s-4.35-11.75-12.27-11.1-6.1,13.39-6.1,13.39S1513,908.52,1520.59,910Z"/><path class="cls-23" d="M1276.61,1026.3s-27-34.8-27.17-63.2.64-37.83,5.38-36.55,26.07,17.12,33.73,32.89,21.13,57,21.41,62.65S1276.61,1026.3,1276.61,1026.3Z"/><path class="cls-24" d="M1278.09,1015.19s-17.25-24-17.9-43.24-.33-25.56,2.61-24.61,16.34,12.07,21.35,22.88,14.06,39,14.34,42.76S1278.09,1015.19,1278.09,1015.19Z"/><path class="cls-23" d="M1320.16,1011.78s-12.94-47.13-7.83-60,31.62-4.26,34.63,4.79,1.15,47.24,1.15,47.24Z"/><path class="cls-24" d="M1323.6,957.59s-1.87,37.35,4.66,51.89l12.56-3.57s2-41.7.27-44.52S1323.6,957.59,1323.6,957.59Z"/><path class="cls-23" d="M1311.6,954.49s43.52,28.8,47,25.76-9.72-32.28-14.85-34.89S1311.29,937.34,1311.6,954.49Z"/><rect class="cls-25" x="1231.55" y="991.72" width="593.3" height="489.21" transform="translate(3056.4 2472.65) rotate(180)"/><rect class="cls-26" x="1528.2" y="991.72" width="593.3" height="489.21"/><polygon class="cls-27" points="2121.49 991.72 2121.49 1327.28 1528.2 1480.93 1528.2 991.72 2121.49 991.72"/><polygon class="cls-26" points="1528.2 991.72 1645.6 1120.44 2231.04 1120.44 2121.5 991.72 1528.2 991.72"/><polygon class="cls-26" points="1231.9 1356.87 1325.91 1356.87 1317.63 1330.41 1325.91 1311.51 1231.9 1311.51 1231.9 1356.87"/><polygon class="cls-27" points="2121.62 1440.77 2027.61 1440.77 2035.89 1414.31 2027.61 1395.41 2121.62 1395.41 2121.62 1440.77"/><polygon class="cls-28" points="1528.2 1047.03 1403.14 1172.09 1231.9 1172.09 1231.9 991.72 1528.2 991.72 1528.2 1047.03"/><polygon class="cls-26" points="1231.55 991.72 1098.16 1120.44 1395 1120.44 1528.2 991.72 1231.55 991.72"/><path class="cls-26" d="M1569.68,1278.2v-96.38h29.65a46.5,46.5,0,0,1,17.84,3.34,40.22,40.22,0,0,1,13.9,9.4,43.12,43.12,0,0,1,9,14.53,52.28,52.28,0,0,1,3.24,18.8v4.37a52.47,52.47,0,0,1-3.21,18.77,42.08,42.08,0,0,1-9.07,14.49,40.32,40.32,0,0,1-14,9.37,47.16,47.16,0,0,1-17.94,3.31Zm19.86-80.29v64.34h9.59q11.79,0,17.94-7.78t6.16-22.21v-4.5q0-14.7-6.09-22.27t-17.81-7.58Z"/><path class="cls-26" d="M1737,1232.19a61.66,61.66,0,0,1-3,19.83,42.9,42.9,0,0,1-8.38,14.86,36.51,36.51,0,0,1-12.94,9.37,43.85,43.85,0,0,1-33.23,0,37.18,37.18,0,0,1-13-9.37,43.13,43.13,0,0,1-8.51-14.86,60.28,60.28,0,0,1-3-19.83V1228a60.83,60.83,0,0,1,3-19.79,43.67,43.67,0,0,1,8.44-15,36.46,36.46,0,0,1,13-9.44,43.85,43.85,0,0,1,33.23,0,36.37,36.37,0,0,1,13,9.44,43.5,43.5,0,0,1,8.44,15,60.83,60.83,0,0,1,3,19.79Zm-20.13-4.36q0-15.16-5.42-23t-15.49-7.88q-10.07,0-15.49,7.88t-5.43,23v4.36a56.15,56.15,0,0,0,1.42,13.34,29.74,29.74,0,0,0,4.11,9.73,17.71,17.71,0,0,0,6.58,6,19.15,19.15,0,0,0,8.94,2q10.07,0,15.42-8t5.36-23.1Z"/><path class="cls-26" d="M1829.75,1278.2h-19.86l-38.66-63.41v63.41h-19.85v-96.38h19.85l38.73,63.55v-63.55h19.79Z"/><path class="cls-26" d="M1902.69,1258.34h-34.81l-6.62,19.86h-21.12l35.88-96.38h18.4l36.07,96.38h-21.11Zm-29.45-16.08h24.09l-12.11-36.08Z"/><path class="cls-26" d="M2004.1,1197.91h-29.52v80.29h-19.86v-80.29h-29.13v-16.09h78.51Z"/><path class="cls-26" d="M2073.4,1236.43h-38.13v25.82H2080v16h-64.6v-96.38h64.47v16.09h-44.62v23h38.13Z"/><path class="cls-29" d="M1085.06,1352.06l-10.8,2.1a23.81,23.81,0,0,1-27.83-18.78l-15.89-81.81a23.82,23.82,0,0,1,15.46-26.93,5.84,5.84,0,0,1-.24-.87l-.93-4.81a6.19,6.19,0,0,1,4.89-7.24l4.81-.93a6.2,6.2,0,0,1,7.25,4.88l.92,4.82a5.16,5.16,0,0,1,.1.67s0,.08,0,.12a23.82,23.82,0,0,1,25.15,19.14l15.88,81.8A23.81,23.81,0,0,1,1085.06,1352.06Z"/><rect class="cls-12" x="1036.37" y="1252.13" width="58.49" height="57.27" transform="translate(-224.63 226.65) rotate(-10.99)"/><path class="cls-15" d="M1062.8,1223.16l-16.8,3.48a5.84,5.84,0,0,1-.24-.87l-.93-4.81a6.19,6.19,0,0,1,4.89-7.24l4.81-.93a6.2,6.2,0,0,1,7.25,4.88l.92,4.82A5.16,5.16,0,0,1,1062.8,1223.16Z"/><path class="cls-30" d="M1376.18,1202.52s-7.11,10-13.64,10.15-16.44-4.64-16.44-4.64-6-13.35-1.92-18.57a8.71,8.71,0,0,1,8.33,1.37,13,13,0,0,1,2.2,2.11,7,7,0,0,0,3.43,2.32c4.65,1.42,10.17-1.91,12.24,1.3a21.35,21.35,0,0,0,3.6,4.26A16.24,16.24,0,0,0,1376.18,1202.52Z"/><path class="cls-30" d="M1283.44,1274.75s25.15-60.92,70.4-62.08c0,0,41.78,4.64,44.1,62.08Z"/><path class="cls-26" d="M1341.44,1214.53s18.14,4,23.74,1.66c0,0,.85-7.58-6.79-6.52-5.23.73-8.64-1.78-10.64-2.8C1344.91,1205.43,1340.69,1211.36,1341.44,1214.53Z"/><path class="cls-31" d="M1357.23,1203.1c-1.16.87-4.72-12.27-4.72-12.27a13,13,0,0,1,2.2,2.11,7,7,0,0,0,3.43,2.32C1358.15,1195.65,1358.36,1202.25,1357.23,1203.1Z"/><path class="cls-31" d="M1374,1200.82c-.26.15-8.65,5.18-9.79,5.18s6.19-9.44,6.19-9.44A21.35,21.35,0,0,0,1374,1200.82Z"/><path class="cls-31" d="M1308,1257.73c-.46-.39,17.8-26.88,22.83-27.07s16.32,5.8,24.5,6.57,16.11-1.54,17.66,3.29,5.8,22,3.19,24.72S1318,1266.31,1308,1257.73Z"/><path class="cls-24" d="M1096.11,1298.92a8.49,8.49,0,0,1-2.88,3.25,8.65,8.65,0,0,1-2.14,1,8.56,8.56,0,0,1-6.58-.5l-112.74-57.27a8.63,8.63,0,1,1,7.82-15.39l112.74,57.27A8.65,8.65,0,0,1,1096.11,1298.92Z"/><polygon class="cls-5" points="1009.15 1264.43 1002.04 1241.45 983.89 1232.23 994.83 1257.16 1009.15 1264.43"/><polygon class="cls-5" points="1036.68 1278.42 1022.37 1271.14 1011.42 1246.22 1029.58 1255.44 1036.68 1278.42"/><polygon class="cls-5" points="1064.2 1292.39 1049.87 1285.12 1038.93 1260.19 1057.09 1269.42 1064.2 1292.39"/><path class="cls-5" d="M1093.23,1302.17a8.65,8.65,0,0,1-2.14,1,8.56,8.56,0,0,1-6.58-.5l-6.62-3.36L1067,1274.43l18.15,9.22Z"/><path class="cls-5" d="M968,1233.83s-2.27-12.25-12.23-15.89c0,0,1.17,1.41-3.62,2.94s-3.4,4.83-5.1,6.32C947,1227.2,953.94,1236.38,968,1233.83Z"/><path class="cls-15" d="M966.05,1235.45l-.26-.14a1.56,1.56,0,0,1-.69-2.09l1.41-2.76a1.56,1.56,0,0,1,2.09-.68l.26.13a1.56,1.56,0,0,1,.69,2.09l-1.41,2.77A1.56,1.56,0,0,1,966.05,1235.45Z"/><path class="cls-5" d="M1095.64,1298.69s11.24-5.4,20.06.5c0,0-1.84-.11-.24,4.66s-1.9,5.59-2.1,7.85C1113.36,1311.7,1101.87,1311.53,1095.64,1298.69Z"/><path class="cls-15" d="M1096.87,1295.39h.3a1.56,1.56,0,0,1,1.56,1.56V1300a1.56,1.56,0,0,1-1.56,1.56h-.3a1.55,1.55,0,0,1-1.55-1.55v-3.1A1.56,1.56,0,0,1,1096.87,1295.39Z" transform="translate(1487.58 2952.88) rotate(-153.09)"/><path class="cls-26" d="M1242.05,1299.81a8.62,8.62,0,0,1-4.19,1.16,8.93,8.93,0,0,1-2.36-.3,8.59,8.59,0,0,1-5.25-4l-63.33-109.45a8.64,8.64,0,0,1,14.95-8.65L1245.2,1288A8.67,8.67,0,0,1,1242.05,1299.81Z"/><polygon class="cls-30" points="1187.92 1223.5 1194.48 1200.37 1184.28 1182.74 1179.88 1209.6 1187.92 1223.5"/><polygon class="cls-30" points="1203.39 1250.23 1195.35 1236.33 1199.75 1209.47 1209.95 1227.1 1203.39 1250.23"/><polygon class="cls-30" points="1218.84 1276.94 1210.8 1263.04 1215.2 1236.17 1225.4 1253.81 1218.84 1276.94"/><path class="cls-30" d="M1237.86,1301a8.93,8.93,0,0,1-2.36-.3,8.59,8.59,0,0,1-5.25-4l-3.71-6.42,4.4-26.86,10.2,17.62Z"/><path class="cls-26" d="M1170.07,1175.41s4.77-11.51-1.59-20c0,0,.21,1.82-4.64.49s-5.48,2.2-7.73,2.53C1156.11,1158.44,1156.91,1169.9,1170.07,1175.41Z"/><path class="cls-25" d="M1167.57,1175.72l-.15-.26a1.57,1.57,0,0,1,.57-2.13l2.68-1.55a1.57,1.57,0,0,1,2.13.57l.15.26a1.55,1.55,0,0,1-.57,2.12l-2.68,1.56A1.57,1.57,0,0,1,1167.57,1175.72Z"/><path class="cls-26" d="M1241.78,1299.35s12.36,1.61,16.54,11.35c0,0-1.47-1.09-2.74,3.78s-4.63,3.65-6,5.44C1249.54,1319.92,1240,1313.52,1241.78,1299.35Z"/><path class="cls-25" d="M1240.27,1301.37l.15.26a1.56,1.56,0,0,0,2.13.56l2.68-1.55a1.55,1.55,0,0,0,.57-2.12l-.15-.26a1.57,1.57,0,0,0-2.13-.57l-2.68,1.55A1.57,1.57,0,0,0,1240.27,1301.37Z"/><path class="cls-15" d="M1037.1,1330.51a8.62,8.62,0,0,1-3.2-2.93,8.49,8.49,0,0,1-1-2.16,8.6,8.6,0,0,1,.61-6.57l59.08-111.8a8.63,8.63,0,0,1,15.26,8.06l-59.08,111.81A8.66,8.66,0,0,1,1037.1,1330.51Z"/><polygon class="cls-32" points="1073 1244.12 1096.08 1237.38 1105.6 1219.38 1080.5 1229.92 1073 1244.12"/><polygon class="cls-32" points="1058.57 1271.42 1066.07 1257.23 1091.17 1246.68 1081.65 1264.69 1058.57 1271.42"/><polygon class="cls-32" points="1044.15 1298.71 1051.66 1284.5 1076.76 1273.96 1067.24 1291.97 1044.15 1298.71"/><path class="cls-32" d="M1033.9,1327.58a8.49,8.49,0,0,1-1-2.16,8.6,8.6,0,0,1,.61-6.57l3.46-6.56,25.1-10.54-9.51,18Z"/><path class="cls-32" d="M1104.25,1203.45s12.29-2.08,16.09-12c0,0-1.43,1.15-2.88-3.66s-4.77-3.48-6.24-5.21C1111.22,1182.6,1101.93,1189.36,1104.25,1203.45Z"/><rect class="cls-15" x="1103.78" y="1199.71" width="3.41" height="6.21" rx="1.56" ry="1.56" transform="translate(2685.29 786.81) rotate(117.83)"/><path class="cls-15" d="M1037.35,1330.05s5.21,11.32-.83,20c0,0,.14-1.83-4.65-.31s-5.56-2-7.82-2.23C1024.05,1347.55,1024.41,1336.07,1037.35,1330.05Z"/><path class="cls-15" d="M1034.84,1329.84l-.14.26a1.57,1.57,0,0,0,.65,2.11l2.74,1.44a1.55,1.55,0,0,0,2.1-.65l.14-.26a1.56,1.56,0,0,0-.65-2.1l-2.73-1.45A1.57,1.57,0,0,0,1034.84,1329.84Z"/><path class="cls-5" d="M1155.14,1228.89s5.17,7.27,9.9,7.37,11.93-3.37,11.93-3.37,4.35-9.68,1.4-13.47a6.33,6.33,0,0,0-6,1,9.42,9.42,0,0,0-1.6,1.53,5.1,5.1,0,0,1-2.48,1.69c-3.38,1-7.39-1.39-8.89.94a15.13,15.13,0,0,1-2.61,3.09A11,11,0,0,1,1155.14,1228.89Z"/><path class="cls-5" d="M1222.45,1281.32s-18.25-44.22-51.09-45.06c0,0-30.32,3.37-32,45.06Z"/><path class="cls-6" d="M1180.35,1237.61s-13.16,2.93-17.22,1.21c0,0-.62-5.51,4.93-4.74,3.79.53,6.26-1.29,7.72-2C1177.83,1231,1180.9,1235.31,1180.35,1237.61Z"/><path class="cls-6" d="M1168.9,1229.31c.84.63,3.42-8.9,3.42-8.9a9.42,9.42,0,0,0-1.6,1.53,5.1,5.1,0,0,1-2.48,1.69C1168.23,1223.91,1168.08,1228.7,1168.9,1229.31Z"/><path class="cls-6" d="M1156.74,1227.66c.19.11,6.28,3.76,7.1,3.76s-4.49-6.85-4.49-6.85A15.13,15.13,0,0,1,1156.74,1227.66Z"/><path class="cls-6" d="M1204.62,1269c.34-.28-12.91-19.5-16.56-19.65s-11.85,4.22-17.79,4.78-11.69-1.13-12.81,2.38-4.21,16-2.32,17.94S1197.34,1275.19,1204.62,1269Z"/><path class="cls-29" d="M1286,1231.25h0c-5.43.07-8.16-8.14-8.16-8.14l-52.91,16a10.4,10.4,0,0,1-1.46,10.27s-9.16,6.11-6.31,15.51l11.71,38.69a13.06,13.06,0,0,0,16.23,8.69l55.82-16.9a13,13,0,0,0,8.69-16.23l-11.71-38.69A13.07,13.07,0,0,0,1286,1231.25Z"/><path class="cls-6" d="M1219.61,1237.42l3.18,10.5c1.15,3.79,15.64,2.76,32.37-2.3s29.36-12.25,28.21-16l-3.18-10.5Z"/><path class="cls-5" d="M1280.19,1219.08c1.15,3.79-11.48,11-28.21,16s-31.22,6.09-32.37,2.3,11.48-11,28.21-16S1279,1215.28,1280.19,1219.08Z"/><path class="cls-33" d="M1144,1252.27h0c-3.79-1.84-2.83-8.48-2.83-8.48l-42.3-7.24a8.07,8.07,0,0,1-4.58,6.62s-8.48,1.07-9.76,8.59l-5.29,30.92a10.12,10.12,0,0,0,8.26,11.66l44.61,7.64a10.15,10.15,0,0,0,11.67-8.26l5.29-30.92A10.13,10.13,0,0,0,1144,1252.27Z"/><path class="cls-28" d="M1095.78,1233.53l-1.44,8.39c-.52,3,9.9,7.35,23.28,9.63s24.63,1.69,25.15-1.35l1.43-8.39Z"/><path class="cls-26" d="M1144.2,1241.81c-.51,3-11.78,3.64-25.15,1.35s-23.79-6.6-23.27-9.63,11.78-3.64,25.15-1.36S1144.72,1238.78,1144.2,1241.81Z"/><rect class="cls-25" x="1009.19" y="1264.82" width="262.1" height="216.11" transform="translate(2280.47 2745.75) rotate(180)"/><rect class="cls-26" x="1140.24" y="1264.82" width="262.1" height="216.11" transform="translate(2542.57 2745.75) rotate(180)"/><polygon class="cls-27" points="1140.24 1264.82 1403.01 1264.82 1403.01 1412.88 1140.24 1480.93 1140.24 1264.82"/><polygon class="cls-26" points="1140.24 1264.82 1192.1 1321.68 1450.73 1321.68 1402.33 1264.82 1140.24 1264.82"/><polygon class="cls-26" points="1009.34 1426.12 1050.87 1426.12 1047.21 1414.44 1050.87 1406.09 1009.34 1406.09 1009.34 1426.12"/><polygon class="cls-28" points="1140.24 1289.25 1084.99 1344.49 1009.34 1344.49 1009.34 1264.82 1140.24 1264.82 1140.24 1289.25"/><polygon class="cls-26" points="1009.19 1264.82 950.26 1321.68 1081.39 1321.68 1140.24 1264.82 1009.19 1264.82"/><path class="cls-26" d="M1158.56,1391.37V1348.8h13.1a20.55,20.55,0,0,1,7.88,1.47,17.76,17.76,0,0,1,6.14,4.16,18.81,18.81,0,0,1,4,6.41,23,23,0,0,1,1.43,8.31v1.93a23.3,23.3,0,0,1-1.41,8.29,18.6,18.6,0,0,1-4,6.4,17.69,17.69,0,0,1-6.18,4.14,21,21,0,0,1-7.93,1.46Zm8.77-35.47v28.43h4.24q5.21,0,7.93-3.44t2.72-9.81v-2q0-6.49-2.69-9.84t-7.87-3.35Z"/><path class="cls-26" d="M1232.45,1371.05a27.42,27.42,0,0,1-1.31,8.76,19,19,0,0,1-3.7,6.56,16.15,16.15,0,0,1-5.72,4.14,19.3,19.3,0,0,1-14.68,0,16.44,16.44,0,0,1-5.75-4.14,19,19,0,0,1-3.75-6.56,26.59,26.59,0,0,1-1.35-8.76v-1.87a27.16,27.16,0,0,1,1.33-8.75,19.29,19.29,0,0,1,3.73-6.6,16,16,0,0,1,5.73-4.17,19.3,19.3,0,0,1,14.68,0,16,16,0,0,1,5.73,4.17,19.29,19.29,0,0,1,3.73,6.6,26.89,26.89,0,0,1,1.33,8.75Zm-8.89-1.93q0-6.69-2.4-10.18a8.46,8.46,0,0,0-13.68,0q-2.4,3.48-2.4,10.18v1.93a24.73,24.73,0,0,0,.63,5.89,13.15,13.15,0,0,0,1.81,4.3,7.84,7.84,0,0,0,2.91,2.63,8.42,8.42,0,0,0,4,.89,7.72,7.72,0,0,0,6.81-3.51c1.58-2.33,2.37-5.74,2.37-10.2Z"/><path class="cls-26" d="M1273.45,1391.37h-8.77l-17.08-28v28h-8.77V1348.8h8.77l17.11,28.07V1348.8h8.74Z"/><path class="cls-26" d="M1305.67,1382.6h-15.38l-2.92,8.77H1278l15.85-42.57H1302l15.93,42.57h-9.32Zm-13-7.11h10.64l-5.35-15.93Z"/><path class="cls-26" d="M1350.47,1355.9h-13v35.47h-8.77V1355.9h-12.87v-7.1h34.68Z"/><path class="cls-26" d="M1381.09,1372.92h-16.85v11.41H1384v7h-28.54V1348.8H1384v7.1h-19.71v10.15h16.85Z"/><path class="cls-2" d="M636.73,1438.15s-52.52-267.69-142-256.7S636.73,1438.15,636.73,1438.15Z"/><path class="cls-2" d="M597.76,1425.74S515,1327,441.49,1356.39,545.67,1378.41,597.76,1425.74Z"/><path class="cls-2" d="M2139.85,1325.11s32.87-182.1,61.2-150.63S2139.85,1325.11,2139.85,1325.11Z"/><path class="cls-2" d="M2151.89,1340.78s56.5-89.7,76.44-60.33S2151.89,1340.78,2151.89,1340.78Z"/></svg>